<svg width="120" height="120" viewBox="0 0 120 120" fill="none" xmlns="http://www.w3.org/2000/svg">
<g clip-path="url(#clip0)" filter="url(#filter0_d)">
<path d="M71.6401 23.3221C70.0827 13.5877 61.5542 6.29521 51.6638 6.29521H37.4776V2.68549C37.4776 1.8736 36.9885 1.14121 36.2382 0.83043C35.4876 0.520184 34.6244 0.691234 34.0502 1.26595L20.588 14.7313C19.804 15.5153 19.804 16.7863 20.588 17.5701L34.0504 31.036C34.6241 31.6104 35.4879 31.7815 36.2385 31.4715C36.9888 31.1607 37.4779 30.4286 37.4779 29.6164V26.0056H51.6641C51.9318 26.0056 52.1944 26.269 52.1944 26.5378L52.1938 77.3144C52.1938 78.4234 53.0925 79.322 54.2015 79.322H69.8942C71.0033 79.322 71.9019 78.4234 71.9019 77.3144V43.5548C71.9019 43.2863 72.1647 43.0232 72.4324 43.0232H82.5225V46.4916C82.5225 47.3037 83.0116 48.0358 83.7622 48.3466C84.5122 48.6569 85.3758 48.4853 85.9502 47.9111L99.4124 34.4441C100.196 33.6601 100.196 32.3891 99.4121 31.6051L85.95 18.1397C85.3758 17.5653 84.5122 17.3937 83.7619 17.7042C83.0116 18.015 82.5225 18.7471 82.5225 19.5593V23.3221H71.6401ZM51.6638 21.9904H35.47C34.361 21.9904 33.4623 22.889 33.4623 23.998V24.7692L24.8466 16.1508L33.4626 7.53326V8.30285C33.4626 9.41187 34.3612 10.3105 35.4702 10.3105H51.6641C59.5648 10.3105 66.3806 16.1235 67.6631 23.8853C63.0155 25.0131 58.9885 27.7451 56.2099 31.4651V26.5378C56.2097 24.0727 54.1279 21.9904 51.6638 21.9904ZM86.5378 41.6435V41.0155C86.5378 39.9065 85.6392 39.0079 84.5302 39.0079H72.4324C69.9684 39.0079 67.8866 41.0899 67.8866 43.5548V75.3067H56.2091V43.5548C56.2091 34.6069 63.4869 27.3275 72.4322 27.3275H84.5299C85.6389 27.3275 86.5375 26.4289 86.5375 25.3198V24.407L95.1532 33.0246L86.5378 41.6435Z" fill="url(#paint0_linear)"/>
</g>
<defs>
<filter id="filter0_d" x="0" y="0" width="120" height="120" filterUnits="userSpaceOnUse" color-interpolation-filters="sRGB">
<feFlood flood-opacity="0" result="BackgroundImageFix"/>
<feColorMatrix in="SourceAlpha" type="matrix" values="0 0 0 0 0 0 0 0 0 0 0 0 0 0 0 0 0 0 127 0"/>
<feOffset dy="20"/>
<feGaussianBlur stdDeviation="10"/>
<feColorMatrix type="matrix" values="0 0 0 0 0.713726 0 0 0 0 0.541176 0 0 0 0 0.376471 0 0 0 0.8 0"/>
<feBlend mode="normal" in2="BackgroundImageFix" result="effect1_dropShadow"/>
<feBlend mode="normal" in="SourceGraphic" in2="effect1_dropShadow" result="shape"/>
</filter>
<linearGradient id="paint0_linear" x1="24.8" y1="15.2831" x2="96.3729" y2="20.8296" gradientUnits="userSpaceOnUse">
<stop stop-color="#B88C62"/>
<stop offset="1" stop-color="#A07246"/>
</linearGradient>
<clipPath id="clip0">
<rect width="80" height="80" fill="white" transform="translate(20)"/>
</clipPath>
</defs>
</svg>
