<svg width="116" height="118" viewBox="0 0 116 118" fill="none" xmlns="http://www.w3.org/2000/svg">
<g filter="url(#filter0_d)">
<path d="M63.9862 19.5171L66.6674 16.0718C67.3378 15.2095 68.1788 14.4946 69.1377 13.9717C70.0967 13.4488 71.1532 13.1292 72.2412 13.0327C73.3292 12.9362 74.4254 13.065 75.4614 13.411C76.4974 13.757 77.451 14.3128 78.2627 15.0437C79.5886 16.2392 81.1522 17.141 82.8509 17.6902L79.8937 25.8227L82.2432 26.6772L84.2502 21.1578L86.2572 26.6772L88.6068 25.8227L85.8604 18.2702L85.8612 18.2702C87.6691 18.3922 89.4823 18.1253 91.1784 17.4874C92.4201 17.0218 93.426 16.082 93.9749 14.8748C94.5237 13.6675 94.5705 12.2917 94.1049 11.0499C93.6393 9.80817 92.6995 8.80222 91.4923 8.25339C90.285 7.70455 88.9092 7.65778 87.6674 8.12336C87.2113 8.29527 86.7167 8.33839 86.2377 8.248C85.7587 8.15761 85.3139 7.93718 84.9518 7.61086C81.826 4.80084 77.8144 3.17489 73.6143 3.01559C69.4141 2.85629 65.2909 4.17371 61.9612 6.73889L61.9208 6.15761C61.8518 5.16494 61.4089 4.23538 60.6813 3.55654C59.9538 2.8777 58.9958 2.50012 58.0007 2.5C57.0057 2.49988 56.0476 2.87724 55.3199 3.55591C54.5922 4.23458 54.149 5.16404 54.0798 6.1567L53.6909 11.7359L53.6908 11.7358L50.4018 10.539C48.3777 9.80314 46.2216 9.50065 44.0731 9.65111C41.9247 9.80156 39.8318 10.4016 37.93 11.4124C36.0282 12.4232 34.3599 13.8221 33.0332 15.5187C31.7065 17.2152 30.7509 19.1715 30.2283 21.2609C29.9854 22.2448 29.4967 23.151 28.8081 23.8946C28.1194 24.6382 27.2533 25.1948 26.2908 25.5124C25.6671 25.7194 25.0902 26.0473 24.5932 26.4774C24.0963 26.9076 23.689 27.4314 23.3947 28.0191C23.1003 28.6067 22.9248 29.2466 22.8779 29.9022C22.8311 30.5577 22.914 31.2161 23.1218 31.8396C23.3297 32.4631 23.6584 33.0395 24.0892 33.5359C24.52 34.0322 25.0444 34.4388 25.6324 34.7323C26.2205 35.0259 26.8606 35.2006 27.5163 35.2465C28.1719 35.2924 28.8301 35.2086 29.4533 34.9999C29.4752 34.9921 29.4971 34.9859 29.519 34.978L27.394 40.8234L29.7439 41.6765L31.7502 36.1577L33.7565 41.6765L36.1064 40.8234L33.3049 33.1187C36.6119 30.9109 38.9747 27.5472 39.9299 23.6874C40.1122 22.9566 40.4459 22.2723 40.9097 21.6788C41.3734 21.0853 41.9567 20.5959 42.6217 20.2423C43.2867 19.8888 44.0186 19.6789 44.77 19.6264C45.5213 19.5739 46.2753 19.6798 46.983 19.9374L52.9658 22.1124L52.9662 22.1126L50.5747 56.3892C49.4853 56.6547 48.5165 57.2779 47.8231 58.1592C47.1298 59.0404 46.752 60.1287 46.7502 61.2499V63.965C46.0197 64.2242 45.3872 64.7031 44.9396 65.336C44.492 65.9689 44.2512 66.7247 44.2502 67.4999V76.2499C44.2502 76.5814 44.3819 76.8994 44.6164 77.1338C44.8508 77.3682 45.1687 77.4999 45.5002 77.4999H70.5002C70.8317 77.4999 71.1497 77.3682 71.3841 77.1338C71.6185 76.8994 71.7502 76.5814 71.7502 76.2499V67.4999C71.7492 66.7247 71.5084 65.9689 71.0608 65.336C70.6132 64.7031 69.9808 64.2242 69.2502 63.965V61.2499C69.2484 60.1287 68.8707 59.0404 68.1773 58.1591C67.484 57.2779 66.5151 56.6547 65.4258 56.3892L62.8926 20.0811L63.344 19.9515C63.5989 19.879 63.824 19.7267 63.9862 19.5171ZM57.0256 5.38337C57.2233 5.19936 57.4689 5.07506 57.7343 5.02486C57.9996 4.97465 58.2737 5.00059 58.5249 5.09967C58.7761 5.19875 58.9941 5.36693 59.1537 5.58475C59.3133 5.80256 59.408 6.06111 59.4268 6.33049L59.608 8.93581V8.93585C59.319 9.25617 59.0408 9.58847 58.7737 9.93274L57.8487 11.1218L56.2071 11.5903L56.5738 6.32972C56.5984 5.96824 56.76 5.62977 57.0256 5.38337ZM47.8377 17.5874C46.8009 17.2107 45.6966 17.0558 44.5962 17.133C43.4957 17.2101 42.4238 17.5175 41.4497 18.0353C40.4757 18.553 39.6212 19.2696 38.9416 20.1385C38.2621 21.0075 37.7726 22.0095 37.5049 23.0796C36.9568 25.2884 35.8592 27.3227 34.3143 28.9937C33.503 29.8708 32.5775 30.6349 31.5627 31.2656C31.3049 31.4265 31.0424 31.5796 30.7737 31.7202C30.0972 32.0826 29.391 32.3863 28.6627 32.6281C28.0339 32.8368 27.348 32.7874 26.7556 32.4907C26.1632 32.194 25.7127 31.6743 25.5032 31.0458C25.2937 30.4173 25.3423 29.7313 25.6382 29.1385C25.9341 28.5457 26.4532 28.0946 27.0815 27.8843C28.4433 27.4344 29.6687 26.6464 30.6432 25.594C31.6176 24.5417 32.3092 23.2594 32.6533 21.8671C33.0917 20.1179 33.8924 18.4802 35.0036 17.06C36.1149 15.6398 37.5119 14.4686 39.1043 13.6224C40.6966 12.7761 42.449 12.2735 44.2478 12.1472C46.0467 12.0209 47.852 12.2736 49.5471 12.889L54.1002 14.5452C54.3476 14.6359 54.6175 14.6452 54.8705 14.5718L58.9268 13.414C59.1821 13.3413 59.4076 13.1892 59.5705 12.9796L60.7471 11.4671C62.0501 9.79176 63.6844 8.40281 65.5479 7.38691C67.4114 6.371 69.4643 5.74993 71.5784 5.56243C73.6926 5.37493 75.8227 5.62501 77.8359 6.29708C79.8492 6.96915 81.7024 8.0488 83.2799 9.4687C83.9811 10.1025 84.8434 10.5307 85.772 10.7063C86.7007 10.8819 87.6598 10.798 88.544 10.464C89.1649 10.2311 89.853 10.2544 90.4568 10.5288C91.0606 10.8033 91.5306 11.3063 91.7635 11.9273C91.9964 12.5482 91.9731 13.2363 91.6986 13.8401C91.4242 14.4439 90.9212 14.9139 90.3002 15.1468C88.5589 15.8035 86.6703 15.9677 84.8417 15.6215C83.0132 15.2754 81.3153 14.4321 79.9346 13.1843C78.8676 12.2238 77.6141 11.4935 76.2523 11.0389C74.8905 10.5843 73.4497 10.4152 72.0196 10.5422C70.5896 10.6691 69.2011 11.0894 67.9407 11.7768C66.6803 12.4642 65.5751 13.404 64.694 14.5374L62.2643 17.6609L54.2971 19.9374L47.8377 17.5874ZM55.466 22.203L60.4356 20.7829L62.91 56.2499H53.0904L55.466 22.203ZM68.0002 66.2499C68.3316 66.2503 68.6493 66.3821 68.8837 66.6165C69.118 66.8508 69.2498 67.1685 69.2502 67.4999V74.9999H46.7502V67.4999C46.7506 67.1685 46.8824 66.8508 47.1168 66.6165C47.3511 66.3821 47.6688 66.2503 48.0002 66.2499H68.0002ZM66.7502 61.2499V63.7499H49.2502V61.2499C49.2511 60.5872 49.5148 59.9518 49.9834 59.4831C50.4521 59.0145 51.0874 58.7508 51.7502 58.7499H64.2502C64.913 58.7508 65.5484 59.0145 66.017 59.4831C66.4857 59.9518 66.7493 60.5872 66.7502 61.2499Z" fill="url(#paint0_linear)"/>
<path d="M58 17.5C58.6904 17.5 59.25 16.9404 59.25 16.25C59.25 15.5596 58.6904 15 58 15C57.3096 15 56.75 15.5596 56.75 16.25C56.75 16.9404 57.3096 17.5 58 17.5Z" fill="url(#paint1_linear)"/>
<path d="M94.25 43.75H74.25C74.0858 43.75 73.9233 43.7823 73.7716 43.8451C73.6199 43.9079 73.4821 43.9999 73.366 44.116C73.2499 44.2321 73.1579 44.3699 73.0951 44.5216C73.0323 44.6733 73 44.8358 73 45C73 47.9837 74.1853 50.8452 76.295 52.955C78.4048 55.0647 81.2663 56.25 84.25 56.25C87.2337 56.25 90.0952 55.0647 92.205 52.955C94.3147 50.8452 95.5 47.9837 95.5 45C95.5 44.8358 95.4677 44.6733 95.4049 44.5216C95.3421 44.3699 95.2501 44.2321 95.134 44.116C95.0179 43.9999 94.8801 43.9079 94.7284 43.8451C94.5767 43.7823 94.4142 43.75 94.25 43.75ZM84.25 53.75C82.1466 53.7473 80.1144 52.9882 78.5243 51.6112C76.9342 50.2343 75.8924 48.3314 75.5891 46.25H92.9109C92.6076 48.3314 91.5658 50.2343 89.9757 51.6112C88.3856 52.9882 86.3534 53.7473 84.25 53.75Z" fill="url(#paint2_linear)"/>
<path d="M41.75 58.75H21.75C21.5858 58.75 21.4233 58.7823 21.2716 58.8451C21.1199 58.9079 20.9821 58.9999 20.866 59.116C20.7499 59.2321 20.6579 59.3699 20.5951 59.5216C20.5323 59.6733 20.5 59.8358 20.5 60C20.5 62.9837 21.6853 65.8452 23.795 67.955C25.9048 70.0647 28.7663 71.25 31.75 71.25C34.7337 71.25 37.5952 70.0647 39.705 67.955C41.8147 65.8452 43 62.9837 43 60C43 59.8358 42.9677 59.6733 42.9049 59.5216C42.8421 59.3699 42.7501 59.2321 42.634 59.116C42.5179 58.9999 42.3801 58.9079 42.2284 58.8451C42.0767 58.7823 41.9142 58.75 41.75 58.75ZM31.75 68.75C29.6466 68.7473 27.6144 67.9882 26.0243 66.6112C24.4342 65.2343 23.3924 63.3314 23.0891 61.25H40.4109C40.1076 63.3314 39.0658 65.2343 37.4757 66.6112C35.8856 67.9882 33.8534 68.7473 31.75 68.75Z" fill="url(#paint3_linear)"/>
<path d="M29.25 55H26.75V57.5H29.25V55Z" fill="url(#paint4_linear)"/>
<path d="M36.75 55H34.25V57.5H36.75V55Z" fill="url(#paint5_linear)"/>
<path d="M39.25 42.5H30.5C30.2042 42.5 29.9181 42.6049 29.6923 42.796C29.4666 42.9871 29.316 43.252 29.2672 43.5437L28.1906 50H28C26.6744 50.0015 25.4035 50.5288 24.4661 51.4661C23.5288 52.4035 23.0015 53.6744 23 55V57.5H25.5V55C25.5008 54.3372 25.7644 53.7017 26.2331 53.2331C26.7017 52.7644 27.3372 52.5008 28 52.5H28.7312L30.8656 54.6344C31.1004 54.8685 31.4184 55 31.75 55C32.0816 55 32.3996 54.8685 32.6344 54.6344L34.7688 52.5H35.5C36.1628 52.5008 36.7983 52.7644 37.2669 53.2331C37.7356 53.7017 37.9992 54.3372 38 55V57.5H40.5V55C40.4984 53.8035 40.0685 52.6472 39.2881 51.7402C38.5077 50.8333 37.4284 50.2358 36.2455 50.0558L36.5281 49.4906L37.6344 48.3844C37.7984 48.22 37.9134 48.0133 37.9667 47.7873C38.0199 47.5613 38.0093 47.325 37.936 47.1047L37.2344 45H39.25V42.5ZM31.5594 45H34.5984L35.3203 47.1625L34.6156 47.8656C34.5213 47.9612 34.4422 48.0709 34.3813 48.1906L33.9078 49.1406L33.8844 49.1156C33.6498 48.8811 33.3317 48.7494 33 48.7494C32.6684 48.7495 32.3503 48.8813 32.1158 49.1158C31.8813 49.3503 31.7495 49.6684 31.7495 50C31.7495 50.3317 31.8812 50.6498 32.1156 50.8844L32.4825 51.2497L31.75 51.9823L31.3237 51.5559L30.5891 50.8203L31.5594 45Z" fill="url(#paint6_linear)"/>
<path d="M89.25 40H86.75V42.5H89.25V40Z" fill="url(#paint7_linear)"/>
<path d="M81.75 40H79.25V42.5H81.75V40Z" fill="url(#paint8_linear)"/>
<path d="M93 42.5V40C92.9985 38.6744 92.4712 37.4035 91.5339 36.4661C90.5965 35.5288 89.3256 35.0015 88 35H87.8094L86.7328 28.5437C86.684 28.252 86.5334 27.9871 86.3076 27.796C86.0819 27.6049 85.7958 27.5 85.5 27.5H76.75V30H78.7656L78.064 32.1047C77.9907 32.325 77.9801 32.5613 78.0333 32.7873C78.0866 33.0133 78.2016 33.22 78.3656 33.3844L79.4719 34.4906L79.7545 35.0558C78.5716 35.2358 77.4923 35.8333 76.7119 36.7402C75.9315 37.6472 75.5016 38.8035 75.5 40V42.5H78V40C78.0008 39.3372 78.2644 38.7017 78.7331 38.2331C79.2017 37.7644 79.8372 37.5008 80.5 37.5H81.2312L83.3656 39.6344C83.6004 39.8685 83.9184 40 84.25 40C84.5816 40 84.8996 39.8685 85.1344 39.6344L87.2688 37.5H88C88.6628 37.5008 89.2983 37.7644 89.7669 38.2331C90.2356 38.7017 90.4992 39.3372 90.5 40V42.5H93ZM81.4016 30H84.4406L85.4109 35.8203L84.6763 36.5559L84.25 36.9823L83.5175 36.2497L83.8844 35.8844C84.1188 35.6498 84.2506 35.3317 84.2505 35C84.2505 34.6684 84.1187 34.3503 83.8842 34.1158C83.6497 33.8813 83.3316 33.7495 83 33.7494C82.6683 33.7494 82.3502 33.8811 82.1156 34.1156L82.0922 34.1406L81.6187 33.1906C81.5578 33.0709 81.4788 32.9612 81.3844 32.8656L80.6797 32.1625L81.4016 30Z" fill="url(#paint9_linear)"/>
</g>
<defs>
<filter id="filter0_d" x="-2" y="0" width="120" height="120" filterUnits="userSpaceOnUse" color-interpolation-filters="sRGB">
<feFlood flood-opacity="0" result="BackgroundImageFix"/>
<feColorMatrix in="SourceAlpha" type="matrix" values="0 0 0 0 0 0 0 0 0 0 0 0 0 0 0 0 0 0 127 0"/>
<feOffset dy="20"/>
<feGaussianBlur stdDeviation="10"/>
<feColorMatrix type="matrix" values="0 0 0 0 0.713726 0 0 0 0 0.541176 0 0 0 0 0.376471 0 0 0 0.8 0"/>
<feBlend mode="normal" in2="BackgroundImageFix" result="effect1_dropShadow"/>
<feBlend mode="normal" in="SourceGraphic" in2="effect1_dropShadow" result="shape"/>
</filter>
<linearGradient id="paint0_linear" x1="27.1587" y1="16.4285" x2="91.2248" y2="21.0852" gradientUnits="userSpaceOnUse">
<stop stop-color="#B88C62"/>
<stop offset="1" stop-color="#A07246"/>
</linearGradient>
<linearGradient id="paint1_linear" x1="56.9" y1="15.4643" x2="59.1371" y2="15.6347" gradientUnits="userSpaceOnUse">
<stop stop-color="#B88C62"/>
<stop offset="1" stop-color="#A07246"/>
</linearGradient>
<linearGradient id="paint2_linear" x1="74.35" y1="46.0714" x2="94.227" y2="48.7971" gradientUnits="userSpaceOnUse">
<stop stop-color="#B88C62"/>
<stop offset="1" stop-color="#A07246"/>
</linearGradient>
<linearGradient id="paint3_linear" x1="21.85" y1="61.0714" x2="41.727" y2="63.7971" gradientUnits="userSpaceOnUse">
<stop stop-color="#B88C62"/>
<stop offset="1" stop-color="#A07246"/>
</linearGradient>
<linearGradient id="paint4_linear" x1="26.9" y1="55.4643" x2="29.1371" y2="55.6347" gradientUnits="userSpaceOnUse">
<stop stop-color="#B88C62"/>
<stop offset="1" stop-color="#A07246"/>
</linearGradient>
<linearGradient id="paint5_linear" x1="34.4" y1="55.4643" x2="36.6371" y2="55.6347" gradientUnits="userSpaceOnUse">
<stop stop-color="#B88C62"/>
<stop offset="1" stop-color="#A07246"/>
</linearGradient>
<linearGradient id="paint6_linear" x1="24.05" y1="45.2857" x2="39.6771" y2="46.6746" gradientUnits="userSpaceOnUse">
<stop stop-color="#B88C62"/>
<stop offset="1" stop-color="#A07246"/>
</linearGradient>
<linearGradient id="paint7_linear" x1="86.9" y1="40.4643" x2="89.1371" y2="40.6347" gradientUnits="userSpaceOnUse">
<stop stop-color="#B88C62"/>
<stop offset="1" stop-color="#A07246"/>
</linearGradient>
<linearGradient id="paint8_linear" x1="79.4" y1="40.4643" x2="81.6371" y2="40.6347" gradientUnits="userSpaceOnUse">
<stop stop-color="#B88C62"/>
<stop offset="1" stop-color="#A07246"/>
</linearGradient>
<linearGradient id="paint9_linear" x1="76.55" y1="30.2857" x2="92.1771" y2="31.6746" gradientUnits="userSpaceOnUse">
<stop stop-color="#B88C62"/>
<stop offset="1" stop-color="#A07246"/>
</linearGradient>
</defs>
</svg>
