<svg width="104" height="120" viewBox="0 0 104 120" fill="none" xmlns="http://www.w3.org/2000/svg">
<g filter="url(#filter0_d)">
<path d="M50.1497 27.0808C49.8638 26.3861 49.1941 25.9375 48.4429 25.9375C48.4422 25.9375 48.4414 25.9375 48.441 25.9375C47.6889 25.9383 47.0191 26.3884 46.7344 27.0842C46.7296 27.0961 46.7247 27.108 46.7204 27.12L42.0266 39.4439C41.7194 40.2503 42.1241 41.1531 42.9305 41.4601C43.1136 41.5298 43.3014 41.563 43.4864 41.563C44.116 41.563 44.7094 41.1795 44.9469 40.5562L45.7327 38.4933H51.1172L51.8941 40.5519C52.1986 41.3591 53.0999 41.7673 53.9077 41.4619C54.715 41.1573 55.1224 40.2558 54.8177 39.4484L50.1666 27.1241C50.1613 27.1094 50.1557 27.0952 50.1497 27.0808ZM46.923 35.3681L48.4374 31.3919L49.938 35.3681H46.923Z" fill="url(#paint0_linear)"/>
<path d="M32.0439 25.9375C31.1811 25.9375 30.4814 26.637 30.4814 27.5V39.9895C30.4814 40.7506 31.03 41.4011 31.7802 41.5295C31.8914 41.5486 35.0094 41.5598 36.4299 41.552C37.2927 41.5472 37.9885 40.8438 37.9836 39.9808C37.9788 39.1208 37.2802 38.427 36.4213 38.427C36.4183 38.427 36.4154 38.427 36.4124 38.427C35.4491 38.4325 34.4169 38.4364 33.6064 38.4373V27.5C33.6064 26.637 32.9069 25.9375 32.0439 25.9375Z" fill="url(#paint1_linear)"/>
<path d="M70.4231 27.2179L68.9745 34.4959L66.6776 27.0398C66.4234 26.2151 65.549 25.752 64.7243 26.0067C64.1643 26.1792 63.772 26.6381 63.657 27.1731L61.3901 34.4968L59.9461 27.1967C59.7787 26.3501 58.9561 25.8 58.1101 25.967C57.2636 26.1345 56.7131 26.9565 56.8806 27.8029L59.3161 40.1153C59.3308 40.1898 59.3509 40.2629 59.3762 40.3343C59.6373 41.0701 60.3348 41.5621 61.1145 41.5621H61.1269C61.9115 41.557 62.6084 41.0542 62.8611 40.3112C62.8658 40.2976 62.8701 40.284 62.8744 40.2703L65.1845 32.8067L67.4844 40.2718C67.4909 40.2931 67.4978 40.3142 67.5053 40.335C67.7665 41.0701 68.464 41.562 69.2434 41.562H69.2562C70.0408 41.5565 70.7375 41.0539 70.99 40.311C71.012 40.2464 71.0298 40.1801 71.0431 40.1131L73.4881 27.8273C73.6565 26.9809 73.107 26.1584 72.2608 25.99C71.4137 25.8215 70.5915 26.3715 70.4231 27.2179Z" fill="url(#paint2_linear)"/>
<path d="M83.1048 77.3327C80.2678 74.4956 80.2678 69.8795 83.1048 67.0425C83.1402 67.0072 83.1739 66.9702 83.2058 66.9316C83.3969 66.7 83.5225 66.4125 83.5545 66.0975C83.5598 66.045 83.5627 65.9917 83.5627 65.9378V43.9062C83.5627 43.0434 82.863 42.3438 82.0002 42.3438C81.1373 42.3438 80.4377 43.0434 80.4377 43.9062V64.375H28.25C26.4925 64.375 24.8692 64.9586 23.5625 65.9417V7.1875C23.5625 4.9475 25.385 3.125 27.625 3.125H80.4375V29.8438C80.4375 30.7067 81.1372 31.4062 82 31.4062C82.8628 31.4062 83.5625 30.7067 83.5625 29.8438V1.5625C83.5625 0.699531 82.8628 0 82 0H27.625C23.6619 0 20.4375 3.22438 20.4375 7.1875V72.1875C20.4375 76.4953 23.9422 80 28.25 80H82C82.4 80 82.7997 79.8473 83.1048 79.5423C83.715 78.9322 83.715 77.9428 83.1048 77.3327ZM62.9375 67.5V74.6652L59.3548 71.0825C59.0497 70.7777 58.6498 70.625 58.25 70.625C57.8502 70.625 57.4503 70.7777 57.1452 71.0827L53.5625 74.6652V67.5H62.9375ZM60.7277 76.875H55.7722L58.25 74.3973L60.7277 76.875ZM23.5625 72.1875C23.5625 69.6028 25.6653 67.5 28.25 67.5H50.4375V76.875H28.25C25.6653 76.875 23.5625 74.7722 23.5625 72.1875ZM78.967 76.875H66.0625V67.5H78.9691C77.4872 70.4386 77.4864 73.9364 78.967 76.875Z" fill="url(#paint3_linear)"/>
<path d="M82 35.3125C81.5891 35.3125 81.1859 35.4797 80.8953 35.7703C80.6047 36.0609 80.4375 36.4641 80.4375 36.875C80.4375 37.2859 80.6045 37.6891 80.8953 37.9797C81.1861 38.2703 81.5891 38.4375 82 38.4375C82.4109 38.4375 82.8141 38.2703 83.1045 37.9797C83.3952 37.6891 83.5625 37.2859 83.5625 36.875C83.5625 36.4641 83.3953 36.0609 83.1045 35.7703C82.8141 35.4797 82.4109 35.3125 82 35.3125Z" fill="url(#paint4_linear)"/>
</g>
<defs>
<filter id="filter0_d" x="-8" y="0" width="120" height="120" filterUnits="userSpaceOnUse" color-interpolation-filters="sRGB">
<feFlood flood-opacity="0" result="BackgroundImageFix"/>
<feColorMatrix in="SourceAlpha" type="matrix" values="0 0 0 0 0 0 0 0 0 0 0 0 0 0 0 0 0 0 127 0"/>
<feOffset dy="20"/>
<feGaussianBlur stdDeviation="10"/>
<feColorMatrix type="matrix" values="0 0 0 0 0.713726 0 0 0 0 0.541176 0 0 0 0 0.376471 0 0 0 0.8 0"/>
<feBlend mode="normal" in2="BackgroundImageFix" result="effect1_dropShadow"/>
<feBlend mode="normal" in="SourceGraphic" in2="effect1_dropShadow" result="shape"/>
</filter>
<linearGradient id="paint0_linear" x1="42.7035" y1="28.8394" x2="54.3527" y2="29.5775" gradientUnits="userSpaceOnUse">
<stop stop-color="#B88C62"/>
<stop offset="1" stop-color="#A07246"/>
</linearGradient>
<linearGradient id="paint1_linear" x1="30.9316" y1="28.8378" x2="37.6748" y2="29.0846" gradientUnits="userSpaceOnUse">
<stop stop-color="#B88C62"/>
<stop offset="1" stop-color="#A07246"/>
</linearGradient>
<linearGradient id="paint2_linear" x1="57.8507" y1="28.8386" x2="72.7539" y2="30.0497" gradientUnits="userSpaceOnUse">
<stop stop-color="#B88C62"/>
<stop offset="1" stop-color="#A07246"/>
</linearGradient>
<linearGradient id="paint3_linear" x1="24.225" y1="14.8571" x2="80.8352" y2="18.2601" gradientUnits="userSpaceOnUse">
<stop stop-color="#B88C62"/>
<stop offset="1" stop-color="#A07246"/>
</linearGradient>
<linearGradient id="paint4_linear" x1="80.625" y1="35.8929" x2="83.4214" y2="36.1059" gradientUnits="userSpaceOnUse">
<stop stop-color="#B88C62"/>
<stop offset="1" stop-color="#A07246"/>
</linearGradient>
</defs>
</svg>
