<svg width="18" height="17" viewBox="0 0 18 17" fill="none" xmlns="http://www.w3.org/2000/svg">
<g clip-path="url(#clip0)">
<path d="M1.72764 6.49097C1.95534 6.63424 2.64171 7.05976 3.78677 7.76729C4.93188 8.47483 5.8091 9.01962 6.41849 9.40168C6.48544 9.44356 6.62768 9.5346 6.84528 9.67492C7.06292 9.81534 7.24375 9.92881 7.38765 10.0154C7.53165 10.1019 7.70573 10.1989 7.91006 10.3064C8.11433 10.4137 8.30688 10.4945 8.48768 10.5479C8.66852 10.6018 8.83591 10.6285 8.9899 10.6285H9H9.01013C9.16412 10.6285 9.33159 10.6018 9.51242 10.5479C9.69315 10.4945 9.88588 10.4136 10.09 10.3064C10.2942 10.1988 10.4682 10.1018 10.6122 10.0154C10.7562 9.92881 10.9369 9.81534 11.1546 9.67492C11.3722 9.53447 11.5146 9.44356 11.5816 9.40168C12.1975 9.01962 13.7647 8.04929 16.2824 6.49079C16.7712 6.1864 17.1796 5.81911 17.5077 5.38917C17.836 4.95942 18 4.50859 18 4.03693C18 3.64279 17.8409 3.3054 17.5228 3.02478C17.2047 2.74411 16.8279 2.60385 16.3928 2.60385H1.60708C1.09148 2.60385 0.694703 2.75907 0.416801 3.06952C0.138934 3.38003 0 3.76815 0 4.23385C0 4.61001 0.184213 5.01765 0.552462 5.45649C0.920676 5.89537 1.31253 6.24023 1.72764 6.49097Z" fill="white"/>
<path d="M16.9954 7.44865C14.7992 8.7741 13.1316 9.80419 11.9933 10.5387C11.6116 10.7894 11.302 10.9851 11.0642 11.1253C10.8264 11.2656 10.5102 11.4089 10.115 11.5552C9.71998 11.7016 9.35184 11.7746 9.01026 11.7746H9.00002H8.98992C8.64841 11.7746 8.28006 11.7016 7.88503 11.5552C7.49001 11.4089 7.17355 11.2656 6.93583 11.1253C6.69817 10.9851 6.38843 10.7894 6.00678 10.5387C5.10271 9.94762 3.43868 8.91746 1.01461 7.44865C0.632817 7.2219 0.294648 6.962 0 6.66946V13.7808C0 14.1751 0.157298 14.5123 0.472071 14.7929C0.786772 15.0737 1.16519 15.214 1.60718 15.214H16.3929C16.8348 15.214 17.2132 15.0737 17.5279 14.7929C17.8428 14.5122 18 14.1751 18 13.7808V6.66946C17.712 6.95594 17.3773 7.21585 16.9954 7.44865Z" fill="white"/>
</g>
<defs>
<clipPath id="clip0">
<rect width="18" height="16.0501" fill="white" transform="translate(0 0.883545)"/>
</clipPath>
</defs>
</svg>
