<svg width="80" height="80" viewBox="0 0 80 80" fill="none" xmlns="http://www.w3.org/2000/svg">
<g clip-path="url(#clip0)">
<path d="M78.8281 26.7728C79.4755 26.7728 80 26.2483 80 25.6009V18.9305C80 18.5483 79.8136 18.19 79.5005 17.9706C79.1873 17.7513 78.787 17.6983 78.4277 17.8291C72.8105 19.8717 65.8459 21.043 58.817 21.127C52.0644 21.2041 45.8605 20.243 41.7944 18.4803C41.7887 18.4778 41.7831 18.4755 41.7775 18.4731C33.5094 15.0411 24.5378 13.8044 15.1214 14.7953C9.92766 15.298 5.23969 16.2881 0.789688 17.8227C0.317187 17.9856 0 18.4305 0 18.9305V60.9995C0 61.3784 0.183125 61.7338 0.491562 61.9536C0.799844 62.1736 1.19562 62.2309 1.55391 62.1072C5.82734 60.6336 10.3392 59.6817 15.357 59.1961C24.3864 58.2456 32.9705 59.4259 40.8708 62.7033C45.2486 64.5991 51.413 65.5355 57.9583 65.5355C65.2247 65.5355 72.9595 64.3802 79.2286 62.1008C79.6917 61.9324 80 61.492 80 60.9994V30.9878C80 30.3405 79.4755 29.8159 78.8281 29.8159C78.1808 29.8159 77.6562 30.3405 77.6562 30.9878V60.1703C72.1794 62.0447 65.5275 63.1159 58.817 63.1961C52.0662 63.2784 45.8606 62.3123 41.7944 60.5494C41.7887 60.5469 41.7831 60.5445 41.7775 60.5422C33.5095 57.1102 24.538 55.8734 15.1216 56.8644C10.5284 57.3089 6.33094 58.1347 2.34391 59.3809V19.7727C6.38344 18.4495 10.6475 17.5828 15.3572 17.127C24.3867 16.1763 32.9706 17.3564 40.8712 20.6344C49.7106 24.462 65.8419 24.3803 77.6564 20.5703V25.6008C77.6562 26.2483 78.1808 26.7728 78.8281 26.7728Z" fill="url(#paint0_linear)"/>
<path d="M73.3594 53.2175C74.0067 53.2175 74.5312 52.693 74.5312 52.0456V31.1005C74.5312 30.4531 74.0067 29.9286 73.3594 29.9286C71.5286 29.9286 69.9681 28.6231 69.6491 26.8244C69.5386 26.2025 68.9552 25.7806 68.3298 25.8691C57.5669 27.4031 46.5811 26.5014 39.6589 23.515C39.6538 23.5127 39.6484 23.5106 39.643 23.5083C32.2377 20.4423 24.1766 19.3411 15.6788 20.2356L15.6483 20.2388C14.1527 20.3834 12.6837 20.5747 11.2828 20.8075C10.9675 20.8598 10.6872 21.0386 10.507 21.3027C10.3267 21.5666 10.2622 21.8928 10.3281 22.2055C10.382 22.4609 10.4094 22.7239 10.4094 22.9875C10.4094 25.0655 8.71891 26.7559 6.64078 26.7559C5.99344 26.7559 5.46891 27.2805 5.46891 27.9278V39.0672C5.46891 39.7145 5.99344 40.2391 6.64078 40.2391C7.28812 40.2391 7.81266 39.7145 7.81266 39.0672V28.9869C10.6242 28.4388 12.7531 25.9569 12.7531 22.9875C12.7531 22.975 12.7531 22.9623 12.753 22.9498C13.7677 22.8011 14.8117 22.6744 15.8663 22.5723L15.9297 22.5661C24.0258 21.7133 31.7008 22.7583 38.7392 25.6709C45.8134 28.7197 56.8061 29.7202 67.6414 28.3277C68.3873 30.3058 70.1116 31.7584 72.1877 32.1606V50.9867C69.3761 51.5348 67.2472 54.0167 67.2472 56.9863C67.2472 57.0073 67.2473 57.0284 67.2475 57.0495C64.4817 57.4655 61.6292 57.6934 58.7519 57.728C52.7397 57.7986 47.3523 56.9986 43.9691 55.5316L43.8742 55.4913C36.7975 52.5538 29.2206 51.0644 21.3539 51.0644C19.1228 51.0644 16.8377 51.1853 14.5714 51.4233C13.8313 51.4952 13.0928 51.5772 12.3658 51.6683C11.6236 49.6803 9.89625 48.2206 7.8125 47.8177V44.5384C7.8125 43.8911 7.28797 43.3666 6.64062 43.3666C5.99328 43.3666 5.46875 43.8911 5.46875 44.5384V48.8777C5.46875 49.525 5.99328 50.0495 6.64062 50.0495C8.47703 50.0495 10.0383 51.3598 10.353 53.1652C10.4614 53.7875 11.0437 54.2111 11.6692 54.1247C12.6881 53.9827 13.7406 53.8587 14.8066 53.7552C17.0011 53.5248 19.2039 53.4081 21.3536 53.4081C28.9103 53.4081 36.185 54.8372 42.9744 57.6555L43.0372 57.6822C46.5656 59.2122 51.9963 60.0759 58.0273 60.0759C58.277 60.0759 58.528 60.0744 58.7795 60.0714C62.1569 60.0311 65.5033 59.7333 68.7256 59.1864C69.0409 59.1328 69.3206 58.953 69.4998 58.6883C69.6791 58.4236 69.7425 58.097 69.6752 57.7845C69.6191 57.5239 69.5906 57.2553 69.5906 56.9864C69.5908 54.9081 71.2812 53.2175 73.3594 53.2175Z" fill="url(#paint1_linear)"/>
<path d="M33.2339 42.6975C32.5865 42.6975 32.062 43.2221 32.062 43.8694C32.062 44.5168 32.5865 45.0413 33.2339 45.0413H35.1487V47.4319C35.1487 48.0793 35.6733 48.6038 36.3206 48.6038C36.9679 48.6038 37.4925 48.0793 37.4925 47.4319V45.0413H43.5228C44.1701 45.0413 44.6947 44.5168 44.6947 43.8694C44.6947 43.2221 44.1701 42.6975 43.5228 42.6975H37.4925V40.4305H43.5228C45.8709 40.4305 47.7814 38.52 47.7814 36.1719C47.7814 33.8238 45.8709 31.9133 43.5228 31.9133H36.3206C35.6733 31.9133 35.1487 32.4379 35.1487 33.0852V38.0868H33.2339C32.5865 38.0868 32.062 38.6113 32.062 39.2586C32.062 39.906 32.5865 40.4305 33.2339 40.4305H35.1487V42.6975H33.2339ZM37.4925 34.2572H43.5228C44.5787 34.2572 45.4376 35.1161 45.4376 36.1721C45.4376 37.228 44.5787 38.0869 43.5228 38.0869H37.4925V34.2572Z" fill="url(#paint2_linear)"/>
<path d="M25.1895 36.3616C25.1895 33.9744 23.2473 32.0322 20.8601 32.0322C18.4729 32.0322 16.5308 33.9744 16.5308 36.3616C16.5308 38.7488 18.4729 40.691 20.8601 40.691C23.2473 40.691 25.1895 38.7489 25.1895 36.3616ZM18.8745 36.3616C18.8745 35.2668 19.7653 34.376 20.8601 34.376C21.955 34.376 22.8458 35.2668 22.8458 36.3616C22.8458 37.4564 21.955 38.3472 20.8601 38.3472C19.7653 38.3472 18.8745 37.4564 18.8745 36.3616Z" fill="url(#paint3_linear)"/>
<path d="M63.3126 43.6484C63.3126 41.2612 61.3704 39.319 58.9832 39.319C56.596 39.319 54.6538 41.2612 54.6538 43.6484C54.6538 46.0356 56.596 47.9778 58.9832 47.9778C61.3704 47.9778 63.3126 46.0356 63.3126 43.6484ZM56.9976 43.6484C56.9976 42.5536 57.8883 41.6628 58.9832 41.6628C60.078 41.6628 60.9688 42.5536 60.9688 43.6484C60.9688 44.7433 60.078 45.634 58.9832 45.634C57.8883 45.634 56.9976 44.7433 56.9976 43.6484Z" fill="url(#paint4_linear)"/>
</g>
<defs>
<linearGradient id="paint0_linear" x1="4.8" y1="23.949" x2="75.7917" y2="32.4207" gradientUnits="userSpaceOnUse">
<stop stop-color="#B88C62"/>
<stop offset="1" stop-color="#A07246"/>
</linearGradient>
<linearGradient id="paint1_linear" x1="9.6125" y1="27.3894" x2="70.7213" y2="35.3988" gradientUnits="userSpaceOnUse">
<stop stop-color="#B88C62"/>
<stop offset="1" stop-color="#A07246"/>
</linearGradient>
<linearGradient id="paint2_linear" x1="33.0052" y1="35.013" x2="47.0807" y2="36.0229" gradientUnits="userSpaceOnUse">
<stop stop-color="#B88C62"/>
<stop offset="1" stop-color="#A07246"/>
</linearGradient>
<linearGradient id="paint3_linear" x1="17.0503" y1="33.6403" x2="24.7985" y2="34.2305" gradientUnits="userSpaceOnUse">
<stop stop-color="#B88C62"/>
<stop offset="1" stop-color="#A07246"/>
</linearGradient>
<linearGradient id="paint4_linear" x1="55.1733" y1="40.9271" x2="62.9215" y2="41.5174" gradientUnits="userSpaceOnUse">
<stop stop-color="#B88C62"/>
<stop offset="1" stop-color="#A07246"/>
</linearGradient>
<clipPath id="clip0">
<rect width="80" height="80" fill="white"/>
</clipPath>
</defs>
</svg>
