<svg width="80" height="80" viewBox="0 0 80 80" fill="none" xmlns="http://www.w3.org/2000/svg">
<path d="M8.75 35C9.44036 35 10 34.4404 10 33.75C10 33.0596 9.44036 32.5 8.75 32.5C8.05964 32.5 7.5 33.0596 7.5 33.75C7.5 34.4404 8.05964 35 8.75 35Z" fill="url(#paint0_linear)"/>
<path d="M53.75 35C54.4404 35 55 34.4404 55 33.75C55 33.0596 54.4404 32.5 53.75 32.5C53.0596 32.5 52.5 33.0596 52.5 33.75C52.5 34.4404 53.0596 35 53.75 35Z" fill="url(#paint1_linear)"/>
<path d="M45.6094 4.87813L45.6111 4.87969C46.0301 5.26018 46.5831 5.45867 47.1484 5.43152C47.7137 5.40437 48.2451 5.15379 48.6257 4.73491C49.0063 4.31602 49.205 3.76311 49.178 3.19779C49.151 2.63246 48.9005 2.101 48.4817 1.72029C48.063 1.33958 47.5101 1.14078 46.9448 1.16763C46.3794 1.19447 45.8479 1.44475 45.4671 1.86343C45.0863 2.28212 44.8873 2.83491 44.914 3.40025C44.9407 3.96559 45.1908 4.49719 45.6094 4.87813Z" fill="url(#paint2_linear)"/>
<path d="M16.2219 21.9359C16.5083 21.9359 16.786 21.8375 17.0086 21.6571C17.2312 21.4768 17.385 21.2255 17.4445 20.9453C17.5039 20.6651 17.4653 20.373 17.3351 20.1178C17.205 19.8627 16.9911 19.66 16.7294 19.5436C16.4676 19.4273 16.1738 19.4044 15.8972 19.4788C15.6206 19.5531 15.3779 19.7202 15.2097 19.9521C15.0416 20.184 14.9582 20.4666 14.9735 20.7526C14.9888 21.0387 15.1018 21.3108 15.2937 21.5234C15.4108 21.6535 15.5539 21.7575 15.7139 21.8285C15.8738 21.8996 16.0469 21.9362 16.2219 21.9359Z" fill="url(#paint3_linear)"/>
<path d="M36.2218 21.9344C36.5083 21.934 36.7859 21.8353 37.0083 21.6547C37.2307 21.4741 37.3842 21.2226 37.4433 20.9422C37.5024 20.6619 37.4635 20.3698 37.3329 20.1148C37.2024 19.8598 36.9882 19.6574 36.7263 19.5414C36.4643 19.4254 36.1705 19.4029 35.894 19.4777C35.6174 19.5525 35.375 19.72 35.2071 19.9521C35.0393 20.1843 34.9564 20.4671 34.9721 20.7531C34.9879 21.0392 35.1014 21.3111 35.2937 21.5235C35.4108 21.6533 35.554 21.757 35.7139 21.8279C35.8739 21.8987 36.0469 21.935 36.2218 21.9344Z" fill="url(#paint4_linear)"/>
<path d="M77.5 71.25C77.1685 71.25 76.8505 71.3817 76.6161 71.6161C76.3817 71.8505 76.25 72.1685 76.25 72.5V76.25C76.2496 76.5814 76.1178 76.8991 75.8835 77.1335C75.6491 77.3678 75.3314 77.4996 75 77.5H51.25C50.9186 77.4996 50.6009 77.3678 50.3665 77.1335C50.1322 76.8991 50.0004 76.5814 50 76.25V72.5C50 72.1685 49.8683 71.8505 49.6339 71.6161C49.3995 71.3817 49.0815 71.25 48.75 71.25C48.4185 71.25 48.1005 71.3817 47.8661 71.6161C47.6317 71.8505 47.5 72.1685 47.5 72.5V76.25C47.5012 77.2442 47.8966 78.1974 48.5996 78.9004C49.3026 79.6034 50.2558 79.9988 51.25 80H75C75.9942 79.9988 76.9474 79.6034 77.6504 78.9004C78.3534 78.1974 78.7488 77.2442 78.75 76.25V72.5C78.75 72.1685 78.6183 71.8505 78.3839 71.6161C78.1495 71.3817 77.8315 71.25 77.5 71.25Z" fill="url(#paint5_linear)"/>
<path d="M77.5 57.5H70.625V56.25C70.6239 55.2558 70.2284 54.3026 69.5254 53.5996C68.8224 52.8966 67.8692 52.5011 66.875 52.5H59.375C58.3808 52.5011 57.4276 52.8966 56.7246 53.5996C56.0216 54.3026 55.6261 55.2558 55.625 56.25V57.5H48.75C48.0872 57.5008 47.4518 57.7644 46.9831 58.2331C46.5144 58.7018 46.2508 59.3372 46.25 60V63.75C46.2519 65.407 46.9109 66.9957 48.0826 68.1674C49.2543 69.3391 50.843 69.9981 52.5 70H61.875V71.25C61.875 71.5815 62.0067 71.8995 62.2411 72.1339C62.4755 72.3683 62.7935 72.5 63.125 72.5C63.4565 72.5 63.7745 72.3683 64.0089 72.1339C64.2433 71.8995 64.375 71.5815 64.375 71.25V70H73.75C75.407 69.9981 76.9957 69.3391 78.1674 68.1674C79.3391 66.9957 79.9981 65.407 80 63.75V60C79.9992 59.3372 79.7356 58.7018 79.2669 58.2331C78.7982 57.7644 78.1628 57.5008 77.5 57.5ZM58.125 56.25C58.1254 55.9186 58.2572 55.6009 58.4915 55.3665C58.7259 55.1322 59.0436 55.0004 59.375 55H66.875C67.2064 55.0004 67.5241 55.1322 67.7585 55.3665C67.9928 55.6009 68.1246 55.9186 68.125 56.25V57.5H58.125V56.25ZM77.5 63.75C77.4988 64.7442 77.1034 65.6974 76.4004 66.4004C75.6974 67.1034 74.7442 67.4988 73.75 67.5H64.375V66.25C64.375 65.9185 64.2433 65.6005 64.0089 65.3661C63.7745 65.1317 63.4565 65 63.125 65C62.7935 65 62.4755 65.1317 62.2411 65.3661C62.0067 65.6005 61.875 65.9185 61.875 66.25V67.5H52.5C51.5058 67.4988 50.5526 67.1034 49.8496 66.4004C49.1466 65.6974 48.7512 64.7442 48.75 63.75L48.7484 60H77.5V63.75Z" fill="url(#paint6_linear)"/>
<path d="M47.657 54.5692C47.7599 54.2541 47.7334 53.911 47.5834 53.6154C47.4333 53.3198 47.172 53.0959 46.8569 52.993C45.8538 52.6657 44.8052 52.4993 43.75 52.5H36.25V50H44.375C47.0847 49.9999 49.6919 48.9646 51.6635 47.1057C53.635 45.2469 54.8219 42.705 54.9813 40H55C56.9891 40 58.8968 39.2098 60.3033 37.8033C61.7098 36.3968 62.5 34.4891 62.5 32.5C62.5 30.5109 61.7098 28.6032 60.3033 27.1967C58.8968 25.7902 56.9891 25 55 25V17.5C55.0059 13.4211 53.5809 9.46934 50.9733 6.33282C50.8154 6.14266 50.6046 6.00359 50.3677 5.93319C50.1307 5.8628 49.8782 5.86423 49.6421 5.93731C49.406 6.01039 49.1968 6.15184 49.041 6.34377C48.8853 6.53571 48.7899 6.76951 48.767 7.01563C48.7368 7.34574 48.8386 7.67438 49.05 7.92969C50.7125 9.93825 51.8236 12.3449 52.2741 14.913C50.6515 13.3633 48.4937 12.499 46.25 12.5H27.5C25.843 12.4981 24.2543 11.8391 23.0826 10.6674C21.9109 9.49567 21.2519 7.90704 21.25 6.25C21.2497 6.1544 21.2384 6.05914 21.2164 5.9661C21.2292 5.78125 21.2377 5.59547 21.2431 5.40938C21.9083 4.50646 22.7765 3.77267 23.7777 3.26727C24.7788 2.76187 25.8848 2.49903 27.0062 2.5H37.5C38.8205 2.49946 40.1354 2.67229 41.4109 3.01407C41.5167 3.04336 41.626 3.05808 41.7358 3.05782C42.0106 3.05768 42.2777 2.967 42.4958 2.79979C42.7138 2.63258 42.8707 2.39817 42.9422 2.13282C43.0283 1.81268 42.9838 1.47146 42.8186 1.18407C42.6533 0.896676 42.3808 0.686614 42.0608 0.600004C40.5734 0.200686 39.04 -0.00104834 37.5 4.09658e-06H27.0062C25.5264 -0.000104973 24.0663 0.339484 22.7383 0.992612C21.4104 1.64574 20.2501 2.59497 19.3469 3.76719C16.1492 3.93473 13.1377 5.32292 10.9335 7.6455C8.72923 9.96808 7.50026 13.048 7.5 16.25V25C5.51088 25 3.60322 25.7902 2.1967 27.1967C0.790176 28.6032 0 30.5109 0 32.5C0 34.4891 0.790176 36.3968 2.1967 37.8033C3.60322 39.2098 5.51088 40 7.5 40H7.51875C7.67814 42.705 8.86499 45.2469 10.8365 47.1057C12.8081 48.9646 15.4153 49.9999 18.125 50H26.25V52.5H18.75C16.0987 52.503 13.5569 53.5575 11.6822 55.4322C9.8075 57.3069 8.75298 59.8488 8.75 62.5V78.75C8.75 79.0815 8.8817 79.3995 9.11612 79.6339C9.35054 79.8683 9.66848 80 10 80C10.3315 80 10.6495 79.8683 10.8839 79.6339C11.1183 79.3995 11.25 79.0815 11.25 78.75V62.5C11.2523 60.5116 12.0432 58.6052 13.4492 57.1992C14.8552 55.7932 16.7616 55.0023 18.75 55H19.2922L23.4291 61.8945L27.5 58.5022V61.2053L26.6125 73.6303C26.5895 73.9609 26.6985 74.287 26.9155 74.5374C27.1325 74.7878 27.4399 74.942 27.7703 74.9663C27.8 74.9678 27.8312 74.9694 27.8609 74.9694C28.1764 74.9679 28.4798 74.8475 28.7106 74.6324C28.9414 74.4173 29.0826 74.1231 29.1063 73.8084L29.9139 62.5H32.5858L33.3934 73.8078C33.417 74.1224 33.5583 74.4166 33.7891 74.6318C34.0199 74.8469 34.3232 74.9672 34.6388 74.9688C34.669 74.9688 34.6993 74.9672 34.7294 74.9641C34.8932 74.9529 35.0531 74.9094 35.2001 74.8362C35.347 74.763 35.478 74.6615 35.5856 74.5375C35.6932 74.4135 35.7752 74.2695 35.827 74.1137C35.8787 73.9579 35.8992 73.7934 35.8872 73.6297L35 61.2047V58.5016L39.0709 61.8939L43.2078 55H43.75C44.5416 54.9993 45.3283 55.124 46.0808 55.3695C46.2368 55.4205 46.4014 55.4402 46.5651 55.4276C46.7287 55.4149 46.8883 55.3702 47.0347 55.2958C47.181 55.2215 47.3113 55.1191 47.4181 54.9944C47.5249 54.8698 47.6061 54.7253 47.657 54.5692ZM10 16.25C10.0005 13.8284 10.8796 11.4893 12.474 9.66675C14.0685 7.84422 16.2701 6.66211 18.6702 6.33985C18.4573 8.14995 17.8175 9.88358 16.8033 11.3979C15.789 12.9122 14.4295 14.1638 12.8367 15.0497L10 16.625V16.25ZM10 19.4855L14.0509 17.2355C16.68 15.774 18.7683 13.5042 20.0061 10.7627C20.7843 12.0548 21.8831 13.1239 23.1961 13.8663C24.5091 14.6087 25.9917 14.9992 27.5 15H46.25C47.907 15.0019 49.4957 15.6609 50.6674 16.8326C51.8391 18.0043 52.4981 19.593 52.5 21.25V25H49.9105C49.6117 22.9167 48.5713 21.0111 46.9803 19.6333C45.3894 18.2555 43.3546 17.498 41.25 17.5C41.0514 17.5 40.8516 17.5063 40.6531 17.5203C40.3305 17.5431 40.0293 17.6901 39.8128 17.9303C39.5962 18.1706 39.4813 18.4854 39.492 18.8086C39.5027 19.1319 39.6383 19.4384 39.8703 19.6638C40.1022 19.8891 40.4125 20.0158 40.7359 20.0172C40.7641 20.0172 40.792 20.0156 40.8219 20.0141C40.9625 20.0047 41.1063 20 41.25 20C42.5299 20.0011 43.7785 20.3954 44.8268 21.1296C45.8752 21.8637 46.6726 22.9023 47.1112 24.1047C47.5498 25.307 47.6084 26.6151 47.279 27.8518C46.9496 29.0886 46.2482 30.1943 45.2696 31.0192C44.2911 31.8441 43.0827 32.3484 41.8081 32.4639C40.5334 32.5794 39.2541 32.3004 38.1433 31.6648C37.0324 31.0291 36.1437 30.0675 35.5974 28.9101C35.0511 27.7527 34.8737 26.4554 35.0891 25.1938C35.1166 25.0319 35.112 24.8661 35.0755 24.706C35.039 24.5459 34.9712 24.3945 34.8762 24.2606C34.7811 24.1267 34.6606 24.0128 34.5216 23.9254C34.3825 23.8381 34.2275 23.779 34.0656 23.7516C33.9959 23.7403 33.9253 23.7346 33.8547 23.7344C33.5595 23.7339 33.2737 23.8383 33.0482 24.0289C32.8227 24.2194 32.6722 24.4838 32.6234 24.775C32.6109 24.8495 32.6011 24.9248 32.5905 25H29.9106C29.6119 22.9166 28.5714 21.011 26.9804 19.6333C25.3894 18.2555 23.3547 17.498 21.25 17.5C21.0516 17.5 20.85 17.5063 20.6531 17.5203C20.4893 17.5312 20.3293 17.5743 20.1822 17.6472C20.035 17.72 19.9037 17.8212 19.7958 17.9448C19.6878 18.0685 19.6052 18.2122 19.5529 18.3678C19.5005 18.5234 19.4794 18.6878 19.4906 18.8516C19.5145 19.1817 19.6677 19.489 19.917 19.7067C20.1664 19.9245 20.4915 20.0349 20.8219 20.0141C20.9625 20.0047 21.1063 20 21.25 20C22.5299 20.0011 23.7785 20.3954 24.8268 21.1296C25.8752 21.8637 26.6726 22.9023 27.1112 24.1047C27.5498 25.307 27.6084 26.6151 27.279 27.8518C26.9496 29.0886 26.2482 30.1943 25.2696 31.0192C24.2911 31.8441 23.0827 32.3484 21.8081 32.4639C20.5334 32.5794 19.2541 32.3004 18.1433 31.6648C17.0324 31.0291 16.1437 30.0675 15.5974 28.9101C15.0511 27.7527 14.8737 26.4554 15.0891 25.1938C15.1439 24.8669 15.0671 24.5316 14.8752 24.2613C14.6834 23.991 14.3923 23.8077 14.0656 23.7516C13.9959 23.7404 13.9253 23.7347 13.8547 23.7344C13.5595 23.7339 13.2737 23.8383 13.0482 24.0289C12.8227 24.2194 12.6722 24.4838 12.6234 24.775C12.6109 24.8495 12.6011 24.9248 12.5903 25H10V19.4855ZM24.0709 58.1055L22.2078 55H27.7969L24.0709 58.1055ZM32.5 60H30V56.4189L31.25 55.3772L32.5 56.4189V60ZM33.75 52.5H28.75V50H33.75V52.5ZM18.125 47.5C15.9701 47.5 13.9035 46.644 12.3798 45.1202C10.856 43.5965 10 41.5299 10 39.375V37.5078L7.5 37.5C6.17392 37.5 4.90215 36.9732 3.96447 36.0355C3.02678 35.0979 2.5 33.8261 2.5 32.5C2.5 31.1739 3.02678 29.9022 3.96447 28.9645C4.90215 28.0268 6.17392 27.5 7.5 27.5V28.75C7.5 29.0815 7.6317 29.3995 7.86612 29.6339C8.10054 29.8683 8.41848 30 8.75 30C9.08152 30 9.39946 29.8683 9.63388 29.6339C9.8683 29.3995 10 29.0815 10 28.75V27.5H12.5895C12.8881 29.5841 13.9283 31.4906 15.5191 32.8698C17.1099 34.2489 19.1446 35.0081 21.25 35.0081C23.3554 35.0081 25.3902 34.2489 26.9809 32.8698C28.5717 31.4906 29.6119 29.5841 29.9105 27.5H32.5894C32.8879 29.5842 33.9279 31.4909 35.5188 32.8701C37.1096 34.2493 39.1445 35.0086 41.2499 35.0086C43.3554 35.0086 45.3903 34.2493 46.9811 32.8701C48.5719 31.4909 49.612 29.5842 49.9105 27.5H52.5V28.75C52.5 29.0815 52.6317 29.3995 52.8661 29.6339C53.1005 29.8683 53.4185 30 53.75 30C54.0815 30 54.3995 29.8683 54.6339 29.6339C54.8683 29.3995 55 29.0815 55 28.75V27.5C56.3261 27.5 57.5979 28.0268 58.5355 28.9645C59.4732 29.9022 60 31.1739 60 32.5C60 33.8261 59.4732 35.0979 58.5355 36.0355C57.5979 36.9732 56.3261 37.5 55 37.5H52.5078L52.5 39.375C52.5 41.5299 51.644 43.5965 50.1202 45.1202C48.5965 46.644 46.5299 47.5 44.375 47.5H18.125ZM38.4291 58.1055L34.7031 55H40.2922L38.4291 58.1055Z" fill="url(#paint7_linear)"/>
<path d="M34.9987 77.4547C34.9674 77.4547 34.9377 77.4563 34.908 77.4578C34.5848 77.4807 34.2831 77.6281 34.0665 77.869C33.8498 78.1099 33.735 78.4255 33.7464 78.7493C33.7577 79.0731 33.8943 79.3798 34.1273 79.605C34.3603 79.8301 34.6715 79.9561 34.9955 79.9563C35.0268 79.9563 35.0565 79.9547 35.0862 79.9532C35.4094 79.9303 35.711 79.7829 35.9277 79.542C36.1444 79.3011 36.2592 78.9855 36.2478 78.6617C36.2365 78.3379 36.0999 78.0311 35.8669 77.806C35.6339 77.5809 35.3227 77.4549 34.9987 77.4547Z" fill="url(#paint8_linear)"/>
<path d="M27.592 77.4594C27.4283 77.4477 27.2639 77.4683 27.1081 77.5202C26.9524 77.572 26.8083 77.6541 26.6843 77.7616C26.5602 77.8691 26.4586 78 26.3851 78.1468C26.3116 78.2936 26.2678 78.4534 26.2561 78.6172C26.2444 78.7809 26.2651 78.9454 26.3169 79.1011C26.3688 79.2569 26.4508 79.4009 26.5583 79.5249C26.6658 79.649 26.7967 79.7506 26.9435 79.8241C27.0903 79.8976 27.2502 79.9414 27.4139 79.9531C27.4436 79.9547 27.4749 79.9562 27.5045 79.9562C27.8283 79.956 28.1394 79.8302 28.3723 79.6052C28.6051 79.3802 28.7416 79.0736 28.753 78.75C28.7643 78.4264 28.6496 78.111 28.4331 77.8703C28.2165 77.6296 27.915 77.4822 27.592 77.4594Z" fill="url(#paint9_linear)"/>
<path d="M17.5 65C17.1685 65 16.8505 65.1317 16.6161 65.3661C16.3817 65.6005 16.25 65.9185 16.25 66.25V78.75C16.25 79.0815 16.3817 79.3995 16.6161 79.6339C16.8505 79.8683 17.1685 80 17.5 80C17.8315 80 18.1495 79.8683 18.3839 79.6339C18.6183 79.3995 18.75 79.0815 18.75 78.75V66.25C18.75 65.9185 18.6183 65.6005 18.3839 65.3661C18.1495 65.1317 17.8315 65 17.5 65Z" fill="url(#paint10_linear)"/>
<path d="M34.3067 36.46C33.4022 37.0653 32.3384 37.3884 31.25 37.3884C30.1617 37.3884 29.0979 37.0653 28.1934 36.46C28.0569 36.367 27.9032 36.302 27.7414 36.2688C27.5796 36.2355 27.4128 36.2346 27.2507 36.2662C27.0885 36.2978 26.9343 36.3612 26.7968 36.4528C26.6593 36.5444 26.5413 36.6623 26.4497 36.7998C26.3581 36.9372 26.2946 37.0915 26.2629 37.2536C26.2313 37.4157 26.232 37.5825 26.2652 37.7443C26.2984 37.9062 26.3634 38.0598 26.4563 38.1964C26.5492 38.333 26.6683 38.4497 26.8067 38.54C28.1215 39.42 29.6679 39.8897 31.25 39.8897C32.8321 39.8897 34.3786 39.42 35.6934 38.54C35.9656 38.3546 36.1537 38.0692 36.2167 37.7459C36.2797 37.4226 36.2125 37.0875 36.0298 36.8135C35.8471 36.5394 35.5636 36.3486 35.2409 36.2824C34.9183 36.2162 34.5825 36.28 34.3067 36.46Z" fill="url(#paint11_linear)"/>
<defs>
<linearGradient id="paint0_linear" x1="7.65" y1="32.9643" x2="9.8871" y2="33.1347" gradientUnits="userSpaceOnUse">
<stop stop-color="#B88C62"/>
<stop offset="1" stop-color="#A07246"/>
</linearGradient>
<linearGradient id="paint1_linear" x1="52.65" y1="32.9643" x2="54.8871" y2="33.1347" gradientUnits="userSpaceOnUse">
<stop stop-color="#B88C62"/>
<stop offset="1" stop-color="#A07246"/>
</linearGradient>
<linearGradient id="paint2_linear" x1="45.1677" y1="1.95799" x2="48.9876" y2="2.24899" gradientUnits="userSpaceOnUse">
<stop stop-color="#B88C62"/>
<stop offset="1" stop-color="#A07246"/>
</linearGradient>
<linearGradient id="paint3_linear" x1="15.1217" y1="19.9002" x2="17.3588" y2="20.0706" gradientUnits="userSpaceOnUse">
<stop stop-color="#B88C62"/>
<stop offset="1" stop-color="#A07246"/>
</linearGradient>
<linearGradient id="paint4_linear" x1="35.1202" y1="19.8987" x2="37.3573" y2="20.0691" gradientUnits="userSpaceOnUse">
<stop stop-color="#B88C62"/>
<stop offset="1" stop-color="#A07246"/>
</linearGradient>
<linearGradient id="paint5_linear" x1="49.375" y1="72.875" x2="75.5625" y2="80" gradientUnits="userSpaceOnUse">
<stop stop-color="#B88C62"/>
<stop offset="1" stop-color="#A07246"/>
</linearGradient>
<linearGradient id="paint6_linear" x1="48.275" y1="56.2143" x2="78.1573" y2="60.0558" gradientUnits="userSpaceOnUse">
<stop stop-color="#B88C62"/>
<stop offset="1" stop-color="#A07246"/>
</linearGradient>
<linearGradient id="paint7_linear" x1="3.75" y1="14.8571" x2="59.8035" y2="18.1933" gradientUnits="userSpaceOnUse">
<stop stop-color="#B88C62"/>
<stop offset="1" stop-color="#A07246"/>
</linearGradient>
<linearGradient id="paint8_linear" x1="33.8958" y1="77.9193" x2="36.1355" y2="78.09" gradientUnits="userSpaceOnUse">
<stop stop-color="#B88C62"/>
<stop offset="1" stop-color="#A07246"/>
</linearGradient>
<linearGradient id="paint9_linear" x1="26.403" y1="77.9205" x2="28.6408" y2="78.091" gradientUnits="userSpaceOnUse">
<stop stop-color="#B88C62"/>
<stop offset="1" stop-color="#A07246"/>
</linearGradient>
<linearGradient id="paint10_linear" x1="16.4" y1="67.7857" x2="18.6497" y2="67.8143" gradientUnits="userSpaceOnUse">
<stop stop-color="#B88C62"/>
<stop offset="1" stop-color="#A07246"/>
</linearGradient>
<linearGradient id="paint11_linear" x1="26.8397" y1="36.9204" x2="35.4637" y2="38.722" gradientUnits="userSpaceOnUse">
<stop stop-color="#B88C62"/>
<stop offset="1" stop-color="#A07246"/>
</linearGradient>
</defs>
</svg>
