<svg width="222" height="232" viewBox="0 0 222 232" fill="none" xmlns="http://www.w3.org/2000/svg">
    <g clip-path="url(#clip0)">
        <path d="M1.88918 3.7094C2.91691 3.7094 3.75004 2.87913 3.75004 1.85494C3.75004 0.830756 2.91691 0.000488281 1.88918 0.000488281C0.861456 0.000488281 0.0283203 0.830756 0.0283203 1.85494C0.0283203 2.87913 0.861456 3.7094 1.88918 3.7094Z" fill="#EBEBEB" fill-opacity="0.2"/>
        <path d="M13.355 3.7094C14.3827 3.7094 15.2159 2.87913 15.2159 1.85494C15.2159 0.830756 14.3827 0.000488281 13.355 0.000488281C12.3273 0.000488281 11.4941 0.830756 11.4941 1.85494C11.4941 2.87913 12.3273 3.7094 13.355 3.7094Z" fill="#EBEBEB" fill-opacity="0.2"/>
        <path d="M24.822 3.7094C25.8498 3.7094 26.6829 2.87913 26.6829 1.85494C26.6829 0.830756 25.8498 0.000488281 24.822 0.000488281C23.7943 0.000488281 22.9612 0.830756 22.9612 1.85494C22.9612 2.87913 23.7943 3.7094 24.822 3.7094Z" fill="#EBEBEB" fill-opacity="0.2"/>
        <path d="M36.2891 3.7094C37.3168 3.7094 38.1499 2.87913 38.1499 1.85494C38.1499 0.830756 37.3168 0.000488281 36.2891 0.000488281C35.2614 0.000488281 34.4282 0.830756 34.4282 1.85494C34.4282 2.87913 35.2614 3.7094 36.2891 3.7094Z" fill="#EBEBEB" fill-opacity="0.2"/>
        <path d="M47.7564 3.7094C48.7841 3.7094 49.6172 2.87913 49.6172 1.85494C49.6172 0.830756 48.7841 0.000488281 47.7564 0.000488281C46.7286 0.000488281 45.8955 0.830756 45.8955 1.85494C45.8955 2.87913 46.7286 3.7094 47.7564 3.7094Z" fill="#EBEBEB" fill-opacity="0.2"/>
        <path d="M59.2234 3.7094C60.2511 3.7094 61.0843 2.87913 61.0843 1.85494C61.0843 0.830756 60.2511 0.000488281 59.2234 0.000488281C58.1957 0.000488281 57.3625 0.830756 57.3625 1.85494C57.3625 2.87913 58.1957 3.7094 59.2234 3.7094Z" fill="#EBEBEB" fill-opacity="0.2"/>
        <path d="M70.6907 3.7094C71.7184 3.7094 72.5516 2.87913 72.5516 1.85494C72.5516 0.830756 71.7184 0.000488281 70.6907 0.000488281C69.663 0.000488281 68.8298 0.830756 68.8298 1.85494C68.8298 2.87913 69.663 3.7094 70.6907 3.7094Z" fill="#EBEBEB" fill-opacity="0.2"/>
        <path d="M82.1577 3.7094C83.1855 3.7094 84.0186 2.87913 84.0186 1.85494C84.0186 0.830756 83.1855 0.000488281 82.1577 0.000488281C81.13 0.000488281 80.2969 0.830756 80.2969 1.85494C80.2969 2.87913 81.13 3.7094 82.1577 3.7094Z" fill="#EBEBEB" fill-opacity="0.2"/>
        <path d="M93.6248 3.7094C94.6525 3.7094 95.4856 2.87913 95.4856 1.85494C95.4856 0.830756 94.6525 0.000488281 93.6248 0.000488281C92.597 0.000488281 91.7639 0.830756 91.7639 1.85494C91.7639 2.87913 92.597 3.7094 93.6248 3.7094Z" fill="#EBEBEB" fill-opacity="0.2"/>
        <path d="M105.092 3.7094C106.12 3.7094 106.953 2.87913 106.953 1.85494C106.953 0.830756 106.12 0.000488281 105.092 0.000488281C104.064 0.000488281 103.231 0.830756 103.231 1.85494C103.231 2.87913 104.064 3.7094 105.092 3.7094Z" fill="#EBEBEB" fill-opacity="0.2"/>
        <path d="M116.559 3.7094C117.587 3.7094 118.42 2.87913 118.42 1.85494C118.42 0.830756 117.587 0.000488281 116.559 0.000488281C115.531 0.000488281 114.698 0.830756 114.698 1.85494C114.698 2.87913 115.531 3.7094 116.559 3.7094Z" fill="#EBEBEB" fill-opacity="0.2"/>
        <path d="M128.026 3.7094C129.054 3.7094 129.887 2.87913 129.887 1.85494C129.887 0.830756 129.054 0.000488281 128.026 0.000488281C126.998 0.000488281 126.165 0.830756 126.165 1.85494C126.165 2.87913 126.998 3.7094 128.026 3.7094Z" fill="#EBEBEB" fill-opacity="0.2"/>
        <path d="M139.493 3.7094C140.521 3.7094 141.354 2.87913 141.354 1.85494C141.354 0.830756 140.521 0.000488281 139.493 0.000488281C138.466 0.000488281 137.633 0.830756 137.633 1.85494C137.633 2.87913 138.466 3.7094 139.493 3.7094Z" fill="#EBEBEB" fill-opacity="0.2"/>
        <path d="M150.96 3.7094C151.988 3.7094 152.821 2.87913 152.821 1.85494C152.821 0.830756 151.988 0.000488281 150.96 0.000488281C149.933 0.000488281 149.1 0.830756 149.1 1.85494C149.1 2.87913 149.933 3.7094 150.96 3.7094Z" fill="#EBEBEB" fill-opacity="0.2"/>
        <path d="M162.428 3.7094C163.455 3.7094 164.288 2.87913 164.288 1.85494C164.288 0.830756 163.455 0.000488281 162.428 0.000488281C161.4 0.000488281 160.567 0.830756 160.567 1.85494C160.567 2.87913 161.4 3.7094 162.428 3.7094Z" fill="#EBEBEB" fill-opacity="0.2"/>
        <path d="M173.895 3.7094C174.923 3.7094 175.756 2.87913 175.756 1.85494C175.756 0.830756 174.923 0.000488281 173.895 0.000488281C172.867 0.000488281 172.034 0.830756 172.034 1.85494C172.034 2.87913 172.867 3.7094 173.895 3.7094Z" fill="#EBEBEB" fill-opacity="0.2"/>
        <path d="M185.362 3.7094C186.39 3.7094 187.223 2.87913 187.223 1.85494C187.223 0.830756 186.39 0.000488281 185.362 0.000488281C184.334 0.000488281 183.501 0.830756 183.501 1.85494C183.501 2.87913 184.334 3.7094 185.362 3.7094Z" fill="#EBEBEB" fill-opacity="0.2"/>
        <path d="M196.829 3.7094C197.857 3.7094 198.69 2.87913 198.69 1.85494C198.69 0.830756 197.857 0.000488281 196.829 0.000488281C195.801 0.000488281 194.968 0.830756 194.968 1.85494C194.968 2.87913 195.801 3.7094 196.829 3.7094Z" fill="#EBEBEB" fill-opacity="0.2"/>
        <path d="M208.296 3.7094C209.324 3.7094 210.157 2.87913 210.157 1.85494C210.157 0.830756 209.324 0.000488281 208.296 0.000488281C207.268 0.000488281 206.435 0.830756 206.435 1.85494C206.435 2.87913 207.268 3.7094 208.296 3.7094Z" fill="#EBEBEB" fill-opacity="0.2"/>
        <path d="M219.763 3.7094C220.791 3.7094 221.624 2.87913 221.624 1.85494C221.624 0.830756 220.791 0.000488281 219.763 0.000488281C218.735 0.000488281 217.902 0.830756 217.902 1.85494C217.902 2.87913 218.735 3.7094 219.763 3.7094Z" fill="#EBEBEB" fill-opacity="0.2"/>
        <path d="M1.88796 17.6075C2.91568 17.6075 3.74882 16.7772 3.74882 15.753C3.74882 14.7288 2.91568 13.8986 1.88796 13.8986C0.860235 13.8986 0.0270996 14.7288 0.0270996 15.753C0.0270996 16.7772 0.860235 17.6075 1.88796 17.6075Z" fill="#EBEBEB" fill-opacity="0.2"/>
        <path d="M13.355 17.6075C14.3827 17.6075 15.2159 16.7772 15.2159 15.753C15.2159 14.7288 14.3827 13.8986 13.355 13.8986C12.3273 13.8986 11.4941 14.7288 11.4941 15.753C11.4941 16.7772 12.3273 17.6075 13.355 17.6075Z" fill="#EBEBEB" fill-opacity="0.2"/>
        <path d="M24.8223 17.6075C25.85 17.6075 26.6831 16.7772 26.6831 15.753C26.6831 14.7288 25.85 13.8986 24.8223 13.8986C23.7946 13.8986 22.9614 14.7288 22.9614 15.753C22.9614 16.7772 23.7946 17.6075 24.8223 17.6075Z" fill="#EBEBEB" fill-opacity="0.2"/>
        <path d="M36.2893 17.6075C37.317 17.6075 38.1502 16.7772 38.1502 15.753C38.1502 14.7288 37.317 13.8986 36.2893 13.8986C35.2616 13.8986 34.4285 14.7288 34.4285 15.753C34.4285 16.7772 35.2616 17.6075 36.2893 17.6075Z" fill="#EBEBEB" fill-opacity="0.2"/>
        <path d="M47.7564 17.6075C48.7841 17.6075 49.6172 16.7772 49.6172 15.753C49.6172 14.7288 48.7841 13.8986 47.7564 13.8986C46.7286 13.8986 45.8955 14.7288 45.8955 15.753C45.8955 16.7772 46.7286 17.6075 47.7564 17.6075Z" fill="#EBEBEB" fill-opacity="0.2"/>
        <path d="M59.2237 17.6075C60.2514 17.6075 61.0845 16.7772 61.0845 15.753C61.0845 14.7288 60.2514 13.8986 59.2237 13.8986C58.1959 13.8986 57.3628 14.7288 57.3628 15.753C57.3628 16.7772 58.1959 17.6075 59.2237 17.6075Z" fill="#EBEBEB" fill-opacity="0.2"/>
        <path d="M70.6907 17.6075C71.7184 17.6075 72.5516 16.7772 72.5516 15.753C72.5516 14.7288 71.7184 13.8986 70.6907 13.8986C69.663 13.8986 68.8298 14.7288 68.8298 15.753C68.8298 16.7772 69.663 17.6075 70.6907 17.6075Z" fill="#EBEBEB" fill-opacity="0.2"/>
        <path d="M82.1577 17.6075C83.1855 17.6075 84.0186 16.7772 84.0186 15.753C84.0186 14.7288 83.1855 13.8986 82.1577 13.8986C81.13 13.8986 80.2969 14.7288 80.2969 15.753C80.2969 16.7772 81.13 17.6075 82.1577 17.6075Z" fill="#EBEBEB" fill-opacity="0.2"/>
        <path d="M93.625 17.6075C94.6527 17.6075 95.4859 16.7772 95.4859 15.753C95.4859 14.7288 94.6527 13.8986 93.625 13.8986C92.5973 13.8986 91.7642 14.7288 91.7642 15.753C91.7642 16.7772 92.5973 17.6075 93.625 17.6075Z" fill="#EBEBEB" fill-opacity="0.2"/>
        <path d="M105.092 17.6075C106.12 17.6075 106.953 16.7772 106.953 15.753C106.953 14.7288 106.12 13.8986 105.092 13.8986C104.064 13.8986 103.231 14.7288 103.231 15.753C103.231 16.7772 104.064 17.6075 105.092 17.6075Z" fill="#EBEBEB" fill-opacity="0.2"/>
        <path d="M116.559 17.6075C117.587 17.6075 118.42 16.7772 118.42 15.753C118.42 14.7288 117.587 13.8986 116.559 13.8986C115.531 13.8986 114.698 14.7288 114.698 15.753C114.698 16.7772 115.531 17.6075 116.559 17.6075Z" fill="#EBEBEB" fill-opacity="0.2"/>
        <path d="M128.026 17.6075C129.054 17.6075 129.887 16.7772 129.887 15.753C129.887 14.7288 129.054 13.8986 128.026 13.8986C126.999 13.8986 126.166 14.7288 126.166 15.753C126.166 16.7772 126.999 17.6075 128.026 17.6075Z" fill="#EBEBEB" fill-opacity="0.2"/>
        <path d="M139.493 17.6075C140.521 17.6075 141.354 16.7772 141.354 15.753C141.354 14.7288 140.521 13.8986 139.493 13.8986C138.466 13.8986 137.633 14.7288 137.633 15.753C137.633 16.7772 138.466 17.6075 139.493 17.6075Z" fill="#EBEBEB" fill-opacity="0.2"/>
        <path d="M150.96 17.6075C151.988 17.6075 152.821 16.7772 152.821 15.753C152.821 14.7288 151.988 13.8986 150.96 13.8986C149.933 13.8986 149.1 14.7288 149.1 15.753C149.1 16.7772 149.933 17.6075 150.96 17.6075Z" fill="#EBEBEB" fill-opacity="0.2"/>
        <path d="M162.428 17.6075C163.455 17.6075 164.289 16.7772 164.289 15.753C164.289 14.7288 163.455 13.8986 162.428 13.8986C161.4 13.8986 160.567 14.7288 160.567 15.753C160.567 16.7772 161.4 17.6075 162.428 17.6075Z" fill="#EBEBEB" fill-opacity="0.2"/>
        <path d="M173.895 17.6075C174.923 17.6075 175.756 16.7772 175.756 15.753C175.756 14.7288 174.923 13.8986 173.895 13.8986C172.867 13.8986 172.034 14.7288 172.034 15.753C172.034 16.7772 172.867 17.6075 173.895 17.6075Z" fill="#EBEBEB" fill-opacity="0.2"/>
        <path d="M185.362 17.6075C186.39 17.6075 187.223 16.7772 187.223 15.753C187.223 14.7288 186.39 13.8986 185.362 13.8986C184.334 13.8986 183.501 14.7288 183.501 15.753C183.501 16.7772 184.334 17.6075 185.362 17.6075Z" fill="#EBEBEB" fill-opacity="0.2"/>
        <path d="M196.829 17.6075C197.857 17.6075 198.69 16.7772 198.69 15.753C198.69 14.7288 197.857 13.8986 196.829 13.8986C195.801 13.8986 194.968 14.7288 194.968 15.753C194.968 16.7772 195.801 17.6075 196.829 17.6075Z" fill="#EBEBEB" fill-opacity="0.2"/>
        <path d="M208.296 17.6075C209.324 17.6075 210.157 16.7772 210.157 15.753C210.157 14.7288 209.324 13.8986 208.296 13.8986C207.268 13.8986 206.435 14.7288 206.435 15.753C206.435 16.7772 207.268 17.6075 208.296 17.6075Z" fill="#EBEBEB" fill-opacity="0.2"/>
        <path d="M219.763 17.6075C220.791 17.6075 221.624 16.7772 221.624 15.753C221.624 14.7288 220.791 13.8986 219.763 13.8986C218.735 13.8986 217.902 14.7288 217.902 15.753C217.902 16.7772 218.735 17.6075 219.763 17.6075Z" fill="#EBEBEB" fill-opacity="0.2"/>
        <path d="M1.88796 31.5055C2.91568 31.5055 3.74882 30.6753 3.74882 29.6511C3.74882 28.6269 2.91568 27.7966 1.88796 27.7966C0.860235 27.7966 0.0270996 28.6269 0.0270996 29.6511C0.0270996 30.6753 0.860235 31.5055 1.88796 31.5055Z" fill="#EBEBEB" fill-opacity="0.2"/>
        <path d="M13.355 31.5055C14.3827 31.5055 15.2159 30.6753 15.2159 29.6511C15.2159 28.6269 14.3827 27.7966 13.355 27.7966C12.3273 27.7966 11.4941 28.6269 11.4941 29.6511C11.4941 30.6753 12.3273 31.5055 13.355 31.5055Z" fill="#EBEBEB" fill-opacity="0.2"/>
        <path d="M24.8223 31.5055C25.85 31.5055 26.6831 30.6753 26.6831 29.6511C26.6831 28.6269 25.85 27.7966 24.8223 27.7966C23.7946 27.7966 22.9614 28.6269 22.9614 29.6511C22.9614 30.6753 23.7946 31.5055 24.8223 31.5055Z" fill="#EBEBEB" fill-opacity="0.2"/>
        <path d="M36.2893 31.5055C37.317 31.5055 38.1502 30.6753 38.1502 29.6511C38.1502 28.6269 37.317 27.7966 36.2893 27.7966C35.2616 27.7966 34.4285 28.6269 34.4285 29.6511C34.4285 30.6753 35.2616 31.5055 36.2893 31.5055Z" fill="#EBEBEB" fill-opacity="0.2"/>
        <path d="M47.7564 31.5055C48.7841 31.5055 49.6172 30.6753 49.6172 29.6511C49.6172 28.6269 48.7841 27.7966 47.7564 27.7966C46.7286 27.7966 45.8955 28.6269 45.8955 29.6511C45.8955 30.6753 46.7286 31.5055 47.7564 31.5055Z" fill="#EBEBEB" fill-opacity="0.2"/>
        <path d="M59.2237 31.5055C60.2514 31.5055 61.0845 30.6753 61.0845 29.6511C61.0845 28.6269 60.2514 27.7966 59.2237 27.7966C58.1959 27.7966 57.3628 28.6269 57.3628 29.6511C57.3628 30.6753 58.1959 31.5055 59.2237 31.5055Z" fill="#EBEBEB" fill-opacity="0.2"/>
        <path d="M70.6907 31.5055C71.7184 31.5055 72.5516 30.6753 72.5516 29.6511C72.5516 28.6269 71.7184 27.7966 70.6907 27.7966C69.663 27.7966 68.8298 28.6269 68.8298 29.6511C68.8298 30.6753 69.663 31.5055 70.6907 31.5055Z" fill="#EBEBEB" fill-opacity="0.2"/>
        <path d="M82.1577 31.5055C83.1855 31.5055 84.0186 30.6753 84.0186 29.6511C84.0186 28.6269 83.1855 27.7966 82.1577 27.7966C81.13 27.7966 80.2969 28.6269 80.2969 29.6511C80.2969 30.6753 81.13 31.5055 82.1577 31.5055Z" fill="#EBEBEB" fill-opacity="0.2"/>
        <path d="M93.625 31.5055C94.6527 31.5055 95.4859 30.6753 95.4859 29.6511C95.4859 28.6269 94.6527 27.7966 93.625 27.7966C92.5973 27.7966 91.7642 28.6269 91.7642 29.6511C91.7642 30.6753 92.5973 31.5055 93.625 31.5055Z" fill="#EBEBEB" fill-opacity="0.2"/>
        <path d="M105.092 31.5055C106.12 31.5055 106.953 30.6753 106.953 29.6511C106.953 28.6269 106.12 27.7966 105.092 27.7966C104.064 27.7966 103.231 28.6269 103.231 29.6511C103.231 30.6753 104.064 31.5055 105.092 31.5055Z" fill="#EBEBEB" fill-opacity="0.2"/>
        <path d="M116.559 31.5055C117.587 31.5055 118.42 30.6753 118.42 29.6511C118.42 28.6269 117.587 27.7966 116.559 27.7966C115.531 27.7966 114.698 28.6269 114.698 29.6511C114.698 30.6753 115.531 31.5055 116.559 31.5055Z" fill="#EBEBEB" fill-opacity="0.2"/>
        <path d="M128.026 31.5055C129.054 31.5055 129.887 30.6753 129.887 29.6511C129.887 28.6269 129.054 27.7966 128.026 27.7966C126.999 27.7966 126.166 28.6269 126.166 29.6511C126.166 30.6753 126.999 31.5055 128.026 31.5055Z" fill="#EBEBEB" fill-opacity="0.2"/>
        <path d="M139.493 31.5055C140.521 31.5055 141.354 30.6753 141.354 29.6511C141.354 28.6269 140.521 27.7966 139.493 27.7966C138.466 27.7966 137.633 28.6269 137.633 29.6511C137.633 30.6753 138.466 31.5055 139.493 31.5055Z" fill="#EBEBEB" fill-opacity="0.2"/>
        <path d="M150.96 31.5055C151.988 31.5055 152.821 30.6753 152.821 29.6511C152.821 28.6269 151.988 27.7966 150.96 27.7966C149.933 27.7966 149.1 28.6269 149.1 29.6511C149.1 30.6753 149.933 31.5055 150.96 31.5055Z" fill="#EBEBEB" fill-opacity="0.2"/>
        <path d="M162.428 31.5055C163.455 31.5055 164.289 30.6753 164.289 29.6511C164.289 28.6269 163.455 27.7966 162.428 27.7966C161.4 27.7966 160.567 28.6269 160.567 29.6511C160.567 30.6753 161.4 31.5055 162.428 31.5055Z" fill="#EBEBEB" fill-opacity="0.2"/>
        <path d="M173.895 31.5055C174.923 31.5055 175.756 30.6753 175.756 29.6511C175.756 28.6269 174.923 27.7966 173.895 27.7966C172.867 27.7966 172.034 28.6269 172.034 29.6511C172.034 30.6753 172.867 31.5055 173.895 31.5055Z" fill="#EBEBEB" fill-opacity="0.2"/>
        <path d="M185.362 31.5055C186.39 31.5055 187.223 30.6753 187.223 29.6511C187.223 28.6269 186.39 27.7966 185.362 27.7966C184.334 27.7966 183.501 28.6269 183.501 29.6511C183.501 30.6753 184.334 31.5055 185.362 31.5055Z" fill="#EBEBEB" fill-opacity="0.2"/>
        <path d="M196.829 31.5055C197.857 31.5055 198.69 30.6753 198.69 29.6511C198.69 28.6269 197.857 27.7966 196.829 27.7966C195.801 27.7966 194.968 28.6269 194.968 29.6511C194.968 30.6753 195.801 31.5055 196.829 31.5055Z" fill="#EBEBEB" fill-opacity="0.2"/>
        <path d="M208.296 31.5055C209.324 31.5055 210.157 30.6753 210.157 29.6511C210.157 28.6269 209.324 27.7966 208.296 27.7966C207.268 27.7966 206.435 28.6269 206.435 29.6511C206.435 30.6753 207.268 31.5055 208.296 31.5055Z" fill="#EBEBEB" fill-opacity="0.2"/>
        <path d="M219.763 31.5055C220.791 31.5055 221.624 30.6753 221.624 29.6511C221.624 28.6269 220.791 27.7966 219.763 27.7966C218.735 27.7966 217.902 28.6269 217.902 29.6511C217.902 30.6753 218.735 31.5055 219.763 31.5055Z" fill="#EBEBEB" fill-opacity="0.2"/>
        <path d="M1.88796 45.4037C2.91568 45.4037 3.74882 44.5735 3.74882 43.5493C3.74882 42.5251 2.91568 41.6948 1.88796 41.6948C0.860235 41.6948 0.0270996 42.5251 0.0270996 43.5493C0.0270996 44.5735 0.860235 45.4037 1.88796 45.4037Z" fill="#EBEBEB" fill-opacity="0.2"/>
        <path d="M13.355 45.4037C14.3827 45.4037 15.2159 44.5735 15.2159 43.5493C15.2159 42.5251 14.3827 41.6948 13.355 41.6948C12.3273 41.6948 11.4941 42.5251 11.4941 43.5493C11.4941 44.5735 12.3273 45.4037 13.355 45.4037Z" fill="#EBEBEB" fill-opacity="0.2"/>
        <path d="M24.8223 45.4037C25.85 45.4037 26.6831 44.5735 26.6831 43.5493C26.6831 42.5251 25.85 41.6948 24.8223 41.6948C23.7946 41.6948 22.9614 42.5251 22.9614 43.5493C22.9614 44.5735 23.7946 45.4037 24.8223 45.4037Z" fill="#EBEBEB" fill-opacity="0.2"/>
        <path d="M36.2893 45.4037C37.317 45.4037 38.1502 44.5735 38.1502 43.5493C38.1502 42.5251 37.317 41.6948 36.2893 41.6948C35.2616 41.6948 34.4285 42.5251 34.4285 43.5493C34.4285 44.5735 35.2616 45.4037 36.2893 45.4037Z" fill="#EBEBEB" fill-opacity="0.2"/>
        <path d="M47.7564 45.4037C48.7841 45.4037 49.6172 44.5735 49.6172 43.5493C49.6172 42.5251 48.7841 41.6948 47.7564 41.6948C46.7286 41.6948 45.8955 42.5251 45.8955 43.5493C45.8955 44.5735 46.7286 45.4037 47.7564 45.4037Z" fill="#EBEBEB" fill-opacity="0.2"/>
        <path d="M59.2237 45.4037C60.2514 45.4037 61.0845 44.5735 61.0845 43.5493C61.0845 42.5251 60.2514 41.6948 59.2237 41.6948C58.1959 41.6948 57.3628 42.5251 57.3628 43.5493C57.3628 44.5735 58.1959 45.4037 59.2237 45.4037Z" fill="#EBEBEB" fill-opacity="0.2"/>
        <path d="M70.6907 45.4037C71.7184 45.4037 72.5516 44.5735 72.5516 43.5493C72.5516 42.5251 71.7184 41.6948 70.6907 41.6948C69.663 41.6948 68.8298 42.5251 68.8298 43.5493C68.8298 44.5735 69.663 45.4037 70.6907 45.4037Z" fill="#EBEBEB" fill-opacity="0.2"/>
        <path d="M82.1577 45.4037C83.1855 45.4037 84.0186 44.5735 84.0186 43.5493C84.0186 42.5251 83.1855 41.6948 82.1577 41.6948C81.13 41.6948 80.2969 42.5251 80.2969 43.5493C80.2969 44.5735 81.13 45.4037 82.1577 45.4037Z" fill="#EBEBEB" fill-opacity="0.2"/>
        <path d="M93.625 45.4037C94.6527 45.4037 95.4859 44.5735 95.4859 43.5493C95.4859 42.5251 94.6527 41.6948 93.625 41.6948C92.5973 41.6948 91.7642 42.5251 91.7642 43.5493C91.7642 44.5735 92.5973 45.4037 93.625 45.4037Z" fill="#EBEBEB" fill-opacity="0.2"/>
        <path d="M105.092 45.4037C106.12 45.4037 106.953 44.5735 106.953 43.5493C106.953 42.5251 106.12 41.6948 105.092 41.6948C104.064 41.6948 103.231 42.5251 103.231 43.5493C103.231 44.5735 104.064 45.4037 105.092 45.4037Z" fill="#EBEBEB" fill-opacity="0.2"/>
        <path d="M116.559 45.4037C117.587 45.4037 118.42 44.5735 118.42 43.5493C118.42 42.5251 117.587 41.6948 116.559 41.6948C115.531 41.6948 114.698 42.5251 114.698 43.5493C114.698 44.5735 115.531 45.4037 116.559 45.4037Z" fill="#EBEBEB" fill-opacity="0.2"/>
        <path d="M128.026 45.4037C129.054 45.4037 129.887 44.5735 129.887 43.5493C129.887 42.5251 129.054 41.6948 128.026 41.6948C126.999 41.6948 126.166 42.5251 126.166 43.5493C126.166 44.5735 126.999 45.4037 128.026 45.4037Z" fill="#EBEBEB" fill-opacity="0.2"/>
        <path d="M139.493 45.4037C140.521 45.4037 141.354 44.5735 141.354 43.5493C141.354 42.5251 140.521 41.6948 139.493 41.6948C138.466 41.6948 137.633 42.5251 137.633 43.5493C137.633 44.5735 138.466 45.4037 139.493 45.4037Z" fill="#EBEBEB" fill-opacity="0.2"/>
        <path d="M150.96 45.4037C151.988 45.4037 152.821 44.5735 152.821 43.5493C152.821 42.5251 151.988 41.6948 150.96 41.6948C149.933 41.6948 149.1 42.5251 149.1 43.5493C149.1 44.5735 149.933 45.4037 150.96 45.4037Z" fill="#EBEBEB" fill-opacity="0.2"/>
        <path d="M162.428 45.4037C163.455 45.4037 164.289 44.5735 164.289 43.5493C164.289 42.5251 163.455 41.6948 162.428 41.6948C161.4 41.6948 160.567 42.5251 160.567 43.5493C160.567 44.5735 161.4 45.4037 162.428 45.4037Z" fill="#EBEBEB" fill-opacity="0.2"/>
        <path d="M173.895 45.4037C174.923 45.4037 175.756 44.5735 175.756 43.5493C175.756 42.5251 174.923 41.6948 173.895 41.6948C172.867 41.6948 172.034 42.5251 172.034 43.5493C172.034 44.5735 172.867 45.4037 173.895 45.4037Z" fill="#EBEBEB" fill-opacity="0.2"/>
        <path d="M185.362 45.4037C186.39 45.4037 187.223 44.5735 187.223 43.5493C187.223 42.5251 186.39 41.6948 185.362 41.6948C184.334 41.6948 183.501 42.5251 183.501 43.5493C183.501 44.5735 184.334 45.4037 185.362 45.4037Z" fill="#EBEBEB" fill-opacity="0.2"/>
        <path d="M196.829 45.4037C197.857 45.4037 198.69 44.5735 198.69 43.5493C198.69 42.5251 197.857 41.6948 196.829 41.6948C195.801 41.6948 194.968 42.5251 194.968 43.5493C194.968 44.5735 195.801 45.4037 196.829 45.4037Z" fill="#EBEBEB" fill-opacity="0.2"/>
        <path d="M208.296 45.4037C209.324 45.4037 210.157 44.5735 210.157 43.5493C210.157 42.5251 209.324 41.6948 208.296 41.6948C207.268 41.6948 206.435 42.5251 206.435 43.5493C206.435 44.5735 207.268 45.4037 208.296 45.4037Z" fill="#EBEBEB" fill-opacity="0.2"/>
        <path d="M219.763 45.4037C220.791 45.4037 221.624 44.5735 221.624 43.5493C221.624 42.5251 220.791 41.6948 219.763 41.6948C218.735 41.6948 217.902 42.5251 217.902 43.5493C217.902 44.5735 218.735 45.4037 219.763 45.4037Z" fill="#EBEBEB" fill-opacity="0.2"/>
        <path d="M1.88796 59.3018C2.91568 59.3018 3.74882 58.4715 3.74882 57.4474C3.74882 56.4232 2.91568 55.5929 1.88796 55.5929C0.860235 55.5929 0.0270996 56.4232 0.0270996 57.4474C0.0270996 58.4715 0.860235 59.3018 1.88796 59.3018Z" fill="#EBEBEB" fill-opacity="0.2"/>
        <path d="M13.355 59.3018C14.3827 59.3018 15.2159 58.4715 15.2159 57.4474C15.2159 56.4232 14.3827 55.5929 13.355 55.5929C12.3273 55.5929 11.4941 56.4232 11.4941 57.4474C11.4941 58.4715 12.3273 59.3018 13.355 59.3018Z" fill="#EBEBEB" fill-opacity="0.2"/>
        <path d="M24.8223 59.3018C25.85 59.3018 26.6831 58.4715 26.6831 57.4474C26.6831 56.4232 25.85 55.5929 24.8223 55.5929C23.7946 55.5929 22.9614 56.4232 22.9614 57.4474C22.9614 58.4715 23.7946 59.3018 24.8223 59.3018Z" fill="#EBEBEB" fill-opacity="0.2"/>
        <path d="M36.2893 59.3018C37.317 59.3018 38.1502 58.4715 38.1502 57.4474C38.1502 56.4232 37.317 55.5929 36.2893 55.5929C35.2616 55.5929 34.4285 56.4232 34.4285 57.4474C34.4285 58.4715 35.2616 59.3018 36.2893 59.3018Z" fill="#EBEBEB" fill-opacity="0.2"/>
        <path d="M47.7564 59.3018C48.7841 59.3018 49.6172 58.4715 49.6172 57.4474C49.6172 56.4232 48.7841 55.5929 47.7564 55.5929C46.7286 55.5929 45.8955 56.4232 45.8955 57.4474C45.8955 58.4715 46.7286 59.3018 47.7564 59.3018Z" fill="#EBEBEB" fill-opacity="0.2"/>
        <path d="M59.2237 59.3018C60.2514 59.3018 61.0845 58.4715 61.0845 57.4474C61.0845 56.4232 60.2514 55.5929 59.2237 55.5929C58.1959 55.5929 57.3628 56.4232 57.3628 57.4474C57.3628 58.4715 58.1959 59.3018 59.2237 59.3018Z" fill="#EBEBEB" fill-opacity="0.2"/>
        <path d="M70.6907 59.3018C71.7184 59.3018 72.5516 58.4715 72.5516 57.4474C72.5516 56.4232 71.7184 55.5929 70.6907 55.5929C69.663 55.5929 68.8298 56.4232 68.8298 57.4474C68.8298 58.4715 69.663 59.3018 70.6907 59.3018Z" fill="#EBEBEB" fill-opacity="0.2"/>
        <path d="M82.1577 59.3018C83.1855 59.3018 84.0186 58.4715 84.0186 57.4474C84.0186 56.4232 83.1855 55.5929 82.1577 55.5929C81.13 55.5929 80.2969 56.4232 80.2969 57.4474C80.2969 58.4715 81.13 59.3018 82.1577 59.3018Z" fill="#EBEBEB" fill-opacity="0.2"/>
        <path d="M93.625 59.3018C94.6527 59.3018 95.4859 58.4715 95.4859 57.4474C95.4859 56.4232 94.6527 55.5929 93.625 55.5929C92.5973 55.5929 91.7642 56.4232 91.7642 57.4474C91.7642 58.4715 92.5973 59.3018 93.625 59.3018Z" fill="#EBEBEB" fill-opacity="0.2"/>
        <path d="M105.092 59.3018C106.12 59.3018 106.953 58.4715 106.953 57.4474C106.953 56.4232 106.12 55.5929 105.092 55.5929C104.064 55.5929 103.231 56.4232 103.231 57.4474C103.231 58.4715 104.064 59.3018 105.092 59.3018Z" fill="#EBEBEB" fill-opacity="0.2"/>
        <path d="M116.559 59.3018C117.587 59.3018 118.42 58.4715 118.42 57.4474C118.42 56.4232 117.587 55.5929 116.559 55.5929C115.531 55.5929 114.698 56.4232 114.698 57.4474C114.698 58.4715 115.531 59.3018 116.559 59.3018Z" fill="#EBEBEB" fill-opacity="0.2"/>
        <path d="M128.026 59.3018C129.054 59.3018 129.887 58.4715 129.887 57.4474C129.887 56.4232 129.054 55.5929 128.026 55.5929C126.999 55.5929 126.166 56.4232 126.166 57.4474C126.166 58.4715 126.999 59.3018 128.026 59.3018Z" fill="#EBEBEB" fill-opacity="0.2"/>
        <path d="M139.493 59.3018C140.521 59.3018 141.354 58.4715 141.354 57.4474C141.354 56.4232 140.521 55.5929 139.493 55.5929C138.466 55.5929 137.633 56.4232 137.633 57.4474C137.633 58.4715 138.466 59.3018 139.493 59.3018Z" fill="#EBEBEB" fill-opacity="0.2"/>
        <path d="M150.96 59.3018C151.988 59.3018 152.821 58.4715 152.821 57.4474C152.821 56.4232 151.988 55.5929 150.96 55.5929C149.933 55.5929 149.1 56.4232 149.1 57.4474C149.1 58.4715 149.933 59.3018 150.96 59.3018Z" fill="#EBEBEB" fill-opacity="0.2"/>
        <path d="M162.428 59.3018C163.455 59.3018 164.289 58.4715 164.289 57.4474C164.289 56.4232 163.455 55.5929 162.428 55.5929C161.4 55.5929 160.567 56.4232 160.567 57.4474C160.567 58.4715 161.4 59.3018 162.428 59.3018Z" fill="#EBEBEB" fill-opacity="0.2"/>
        <path d="M173.895 59.3018C174.923 59.3018 175.756 58.4715 175.756 57.4474C175.756 56.4232 174.923 55.5929 173.895 55.5929C172.867 55.5929 172.034 56.4232 172.034 57.4474C172.034 58.4715 172.867 59.3018 173.895 59.3018Z" fill="#EBEBEB" fill-opacity="0.2"/>
        <path d="M185.362 59.3018C186.39 59.3018 187.223 58.4715 187.223 57.4474C187.223 56.4232 186.39 55.5929 185.362 55.5929C184.334 55.5929 183.501 56.4232 183.501 57.4474C183.501 58.4715 184.334 59.3018 185.362 59.3018Z" fill="#EBEBEB" fill-opacity="0.2"/>
        <path d="M196.829 59.3018C197.857 59.3018 198.69 58.4715 198.69 57.4474C198.69 56.4232 197.857 55.5929 196.829 55.5929C195.801 55.5929 194.968 56.4232 194.968 57.4474C194.968 58.4715 195.801 59.3018 196.829 59.3018Z" fill="#EBEBEB" fill-opacity="0.2"/>
        <path d="M208.296 59.3018C209.324 59.3018 210.157 58.4715 210.157 57.4474C210.157 56.4232 209.324 55.5929 208.296 55.5929C207.268 55.5929 206.435 56.4232 206.435 57.4474C206.435 58.4715 207.268 59.3018 208.296 59.3018Z" fill="#EBEBEB" fill-opacity="0.2"/>
        <path d="M219.763 59.3018C220.791 59.3018 221.624 58.4715 221.624 57.4474C221.624 56.4232 220.791 55.5929 219.763 55.5929C218.735 55.5929 217.902 56.4232 217.902 57.4474C217.902 58.4715 218.735 59.3018 219.763 59.3018Z" fill="#EBEBEB" fill-opacity="0.2"/>
        <path d="M1.88796 73.1999C2.91568 73.1999 3.74882 72.3696 3.74882 71.3454C3.74882 70.3212 2.91568 69.491 1.88796 69.491C0.860235 69.491 0.0270996 70.3212 0.0270996 71.3454C0.0270996 72.3696 0.860235 73.1999 1.88796 73.1999Z" fill="#EBEBEB" fill-opacity="0.2"/>
        <path d="M13.355 73.1999C14.3827 73.1999 15.2159 72.3696 15.2159 71.3454C15.2159 70.3212 14.3827 69.491 13.355 69.491C12.3273 69.491 11.4941 70.3212 11.4941 71.3454C11.4941 72.3696 12.3273 73.1999 13.355 73.1999Z" fill="#EBEBEB" fill-opacity="0.2"/>
        <path d="M24.8223 73.1999C25.85 73.1999 26.6831 72.3696 26.6831 71.3454C26.6831 70.3212 25.85 69.491 24.8223 69.491C23.7946 69.491 22.9614 70.3212 22.9614 71.3454C22.9614 72.3696 23.7946 73.1999 24.8223 73.1999Z" fill="#EBEBEB" fill-opacity="0.2"/>
        <path d="M36.2893 73.1999C37.317 73.1999 38.1502 72.3696 38.1502 71.3454C38.1502 70.3212 37.317 69.491 36.2893 69.491C35.2616 69.491 34.4285 70.3212 34.4285 71.3454C34.4285 72.3696 35.2616 73.1999 36.2893 73.1999Z" fill="#EBEBEB" fill-opacity="0.2"/>
        <path d="M47.7564 73.1999C48.7841 73.1999 49.6172 72.3696 49.6172 71.3454C49.6172 70.3212 48.7841 69.491 47.7564 69.491C46.7286 69.491 45.8955 70.3212 45.8955 71.3454C45.8955 72.3696 46.7286 73.1999 47.7564 73.1999Z" fill="#EBEBEB" fill-opacity="0.2"/>
        <path d="M59.2237 73.1999C60.2514 73.1999 61.0845 72.3696 61.0845 71.3454C61.0845 70.3212 60.2514 69.491 59.2237 69.491C58.1959 69.491 57.3628 70.3212 57.3628 71.3454C57.3628 72.3696 58.1959 73.1999 59.2237 73.1999Z" fill="#EBEBEB" fill-opacity="0.2"/>
        <path d="M70.6907 73.1999C71.7184 73.1999 72.5516 72.3696 72.5516 71.3454C72.5516 70.3212 71.7184 69.491 70.6907 69.491C69.663 69.491 68.8298 70.3212 68.8298 71.3454C68.8298 72.3696 69.663 73.1999 70.6907 73.1999Z" fill="#EBEBEB" fill-opacity="0.2"/>
        <path d="M82.1577 73.1999C83.1855 73.1999 84.0186 72.3696 84.0186 71.3454C84.0186 70.3212 83.1855 69.491 82.1577 69.491C81.13 69.491 80.2969 70.3212 80.2969 71.3454C80.2969 72.3696 81.13 73.1999 82.1577 73.1999Z" fill="#EBEBEB" fill-opacity="0.2"/>
        <path d="M93.625 73.1999C94.6527 73.1999 95.4859 72.3696 95.4859 71.3454C95.4859 70.3212 94.6527 69.491 93.625 69.491C92.5973 69.491 91.7642 70.3212 91.7642 71.3454C91.7642 72.3696 92.5973 73.1999 93.625 73.1999Z" fill="#EBEBEB" fill-opacity="0.2"/>
        <path d="M105.092 73.1999C106.12 73.1999 106.953 72.3696 106.953 71.3454C106.953 70.3212 106.12 69.491 105.092 69.491C104.064 69.491 103.231 70.3212 103.231 71.3454C103.231 72.3696 104.064 73.1999 105.092 73.1999Z" fill="#EBEBEB" fill-opacity="0.2"/>
        <path d="M116.559 73.1999C117.587 73.1999 118.42 72.3696 118.42 71.3454C118.42 70.3212 117.587 69.491 116.559 69.491C115.531 69.491 114.698 70.3212 114.698 71.3454C114.698 72.3696 115.531 73.1999 116.559 73.1999Z" fill="#EBEBEB" fill-opacity="0.2"/>
        <path d="M128.026 73.1999C129.054 73.1999 129.887 72.3696 129.887 71.3454C129.887 70.3212 129.054 69.491 128.026 69.491C126.999 69.491 126.166 70.3212 126.166 71.3454C126.166 72.3696 126.999 73.1999 128.026 73.1999Z" fill="#EBEBEB" fill-opacity="0.2"/>
        <path d="M139.493 73.1999C140.521 73.1999 141.354 72.3696 141.354 71.3454C141.354 70.3212 140.521 69.491 139.493 69.491C138.466 69.491 137.633 70.3212 137.633 71.3454C137.633 72.3696 138.466 73.1999 139.493 73.1999Z" fill="#EBEBEB" fill-opacity="0.2"/>
        <path d="M150.96 73.1999C151.988 73.1999 152.821 72.3696 152.821 71.3454C152.821 70.3212 151.988 69.491 150.96 69.491C149.933 69.491 149.1 70.3212 149.1 71.3454C149.1 72.3696 149.933 73.1999 150.96 73.1999Z" fill="#EBEBEB" fill-opacity="0.2"/>
        <path d="M162.428 73.1999C163.455 73.1999 164.289 72.3696 164.289 71.3454C164.289 70.3212 163.455 69.491 162.428 69.491C161.4 69.491 160.567 70.3212 160.567 71.3454C160.567 72.3696 161.4 73.1999 162.428 73.1999Z" fill="#EBEBEB" fill-opacity="0.2"/>
        <path d="M173.895 73.1999C174.923 73.1999 175.756 72.3696 175.756 71.3454C175.756 70.3212 174.923 69.491 173.895 69.491C172.867 69.491 172.034 70.3212 172.034 71.3454C172.034 72.3696 172.867 73.1999 173.895 73.1999Z" fill="#EBEBEB" fill-opacity="0.2"/>
        <path d="M185.362 73.1999C186.39 73.1999 187.223 72.3696 187.223 71.3454C187.223 70.3212 186.39 69.491 185.362 69.491C184.334 69.491 183.501 70.3212 183.501 71.3454C183.501 72.3696 184.334 73.1999 185.362 73.1999Z" fill="#EBEBEB" fill-opacity="0.2"/>
        <path d="M196.829 73.1999C197.857 73.1999 198.69 72.3696 198.69 71.3454C198.69 70.3212 197.857 69.491 196.829 69.491C195.801 69.491 194.968 70.3212 194.968 71.3454C194.968 72.3696 195.801 73.1999 196.829 73.1999Z" fill="#EBEBEB" fill-opacity="0.2"/>
        <path d="M208.296 73.1999C209.324 73.1999 210.157 72.3696 210.157 71.3454C210.157 70.3212 209.324 69.491 208.296 69.491C207.268 69.491 206.435 70.3212 206.435 71.3454C206.435 72.3696 207.268 73.1999 208.296 73.1999Z" fill="#EBEBEB" fill-opacity="0.2"/>
        <path d="M219.763 73.1999C220.791 73.1999 221.624 72.3696 221.624 71.3454C221.624 70.3212 220.791 69.491 219.763 69.491C218.735 69.491 217.902 70.3212 217.902 71.3454C217.902 72.3696 218.735 73.1999 219.763 73.1999Z" fill="#EBEBEB" fill-opacity="0.2"/>
        <path d="M1.88796 87.0981C2.91568 87.0981 3.74882 86.2678 3.74882 85.2436C3.74882 84.2194 2.91568 83.3892 1.88796 83.3892C0.860235 83.3892 0.0270996 84.2194 0.0270996 85.2436C0.0270996 86.2678 0.860235 87.0981 1.88796 87.0981Z" fill="#EBEBEB" fill-opacity="0.2"/>
        <path d="M13.355 87.0981C14.3827 87.0981 15.2159 86.2678 15.2159 85.2436C15.2159 84.2194 14.3827 83.3892 13.355 83.3892C12.3273 83.3892 11.4941 84.2194 11.4941 85.2436C11.4941 86.2678 12.3273 87.0981 13.355 87.0981Z" fill="#EBEBEB" fill-opacity="0.2"/>
        <path d="M24.8223 87.0981C25.85 87.0981 26.6831 86.2678 26.6831 85.2436C26.6831 84.2194 25.85 83.3892 24.8223 83.3892C23.7946 83.3892 22.9614 84.2194 22.9614 85.2436C22.9614 86.2678 23.7946 87.0981 24.8223 87.0981Z" fill="#EBEBEB" fill-opacity="0.2"/>
        <path d="M36.2893 87.0981C37.317 87.0981 38.1502 86.2678 38.1502 85.2436C38.1502 84.2194 37.317 83.3892 36.2893 83.3892C35.2616 83.3892 34.4285 84.2194 34.4285 85.2436C34.4285 86.2678 35.2616 87.0981 36.2893 87.0981Z" fill="#EBEBEB" fill-opacity="0.2"/>
        <path d="M47.7564 87.0981C48.7841 87.0981 49.6172 86.2678 49.6172 85.2436C49.6172 84.2194 48.7841 83.3892 47.7564 83.3892C46.7286 83.3892 45.8955 84.2194 45.8955 85.2436C45.8955 86.2678 46.7286 87.0981 47.7564 87.0981Z" fill="#EBEBEB" fill-opacity="0.2"/>
        <path d="M59.2237 87.0981C60.2514 87.0981 61.0845 86.2678 61.0845 85.2436C61.0845 84.2194 60.2514 83.3892 59.2237 83.3892C58.1959 83.3892 57.3628 84.2194 57.3628 85.2436C57.3628 86.2678 58.1959 87.0981 59.2237 87.0981Z" fill="#EBEBEB" fill-opacity="0.2"/>
        <path d="M70.6907 87.0981C71.7184 87.0981 72.5516 86.2678 72.5516 85.2436C72.5516 84.2194 71.7184 83.3892 70.6907 83.3892C69.663 83.3892 68.8298 84.2194 68.8298 85.2436C68.8298 86.2678 69.663 87.0981 70.6907 87.0981Z" fill="#EBEBEB" fill-opacity="0.2"/>
        <path d="M82.1577 87.0981C83.1855 87.0981 84.0186 86.2678 84.0186 85.2436C84.0186 84.2194 83.1855 83.3892 82.1577 83.3892C81.13 83.3892 80.2969 84.2194 80.2969 85.2436C80.2969 86.2678 81.13 87.0981 82.1577 87.0981Z" fill="#EBEBEB" fill-opacity="0.2"/>
        <path d="M93.625 87.0981C94.6527 87.0981 95.4859 86.2678 95.4859 85.2436C95.4859 84.2194 94.6527 83.3892 93.625 83.3892C92.5973 83.3892 91.7642 84.2194 91.7642 85.2436C91.7642 86.2678 92.5973 87.0981 93.625 87.0981Z" fill="#EBEBEB" fill-opacity="0.2"/>
        <path d="M105.092 87.0981C106.12 87.0981 106.953 86.2678 106.953 85.2436C106.953 84.2194 106.12 83.3892 105.092 83.3892C104.064 83.3892 103.231 84.2194 103.231 85.2436C103.231 86.2678 104.064 87.0981 105.092 87.0981Z" fill="#EBEBEB" fill-opacity="0.2"/>
        <path d="M116.559 87.0981C117.587 87.0981 118.42 86.2678 118.42 85.2436C118.42 84.2194 117.587 83.3892 116.559 83.3892C115.531 83.3892 114.698 84.2194 114.698 85.2436C114.698 86.2678 115.531 87.0981 116.559 87.0981Z" fill="#EBEBEB" fill-opacity="0.2"/>
        <path d="M128.026 87.0981C129.054 87.0981 129.887 86.2678 129.887 85.2436C129.887 84.2194 129.054 83.3892 128.026 83.3892C126.999 83.3892 126.166 84.2194 126.166 85.2436C126.166 86.2678 126.999 87.0981 128.026 87.0981Z" fill="#EBEBEB" fill-opacity="0.2"/>
        <path d="M139.493 87.0981C140.521 87.0981 141.354 86.2678 141.354 85.2436C141.354 84.2194 140.521 83.3892 139.493 83.3892C138.466 83.3892 137.633 84.2194 137.633 85.2436C137.633 86.2678 138.466 87.0981 139.493 87.0981Z" fill="#EBEBEB" fill-opacity="0.2"/>
        <path d="M150.96 87.0981C151.988 87.0981 152.821 86.2678 152.821 85.2436C152.821 84.2194 151.988 83.3892 150.96 83.3892C149.933 83.3892 149.1 84.2194 149.1 85.2436C149.1 86.2678 149.933 87.0981 150.96 87.0981Z" fill="#EBEBEB" fill-opacity="0.2"/>
        <path d="M162.428 87.0981C163.455 87.0981 164.289 86.2678 164.289 85.2436C164.289 84.2194 163.455 83.3892 162.428 83.3892C161.4 83.3892 160.567 84.2194 160.567 85.2436C160.567 86.2678 161.4 87.0981 162.428 87.0981Z" fill="#EBEBEB" fill-opacity="0.2"/>
        <path d="M173.895 87.0981C174.923 87.0981 175.756 86.2678 175.756 85.2436C175.756 84.2194 174.923 83.3892 173.895 83.3892C172.867 83.3892 172.034 84.2194 172.034 85.2436C172.034 86.2678 172.867 87.0981 173.895 87.0981Z" fill="#EBEBEB" fill-opacity="0.2"/>
        <path d="M185.362 87.0981C186.39 87.0981 187.223 86.2678 187.223 85.2436C187.223 84.2194 186.39 83.3892 185.362 83.3892C184.334 83.3892 183.501 84.2194 183.501 85.2436C183.501 86.2678 184.334 87.0981 185.362 87.0981Z" fill="#EBEBEB" fill-opacity="0.2"/>
        <path d="M196.829 87.0981C197.857 87.0981 198.69 86.2678 198.69 85.2436C198.69 84.2194 197.857 83.3892 196.829 83.3892C195.801 83.3892 194.968 84.2194 194.968 85.2436C194.968 86.2678 195.801 87.0981 196.829 87.0981Z" fill="#EBEBEB" fill-opacity="0.2"/>
        <path d="M208.296 87.0981C209.324 87.0981 210.157 86.2678 210.157 85.2436C210.157 84.2194 209.324 83.3892 208.296 83.3892C207.268 83.3892 206.435 84.2194 206.435 85.2436C206.435 86.2678 207.268 87.0981 208.296 87.0981Z" fill="#EBEBEB" fill-opacity="0.2"/>
        <path d="M219.763 87.0981C220.791 87.0981 221.624 86.2678 221.624 85.2436C221.624 84.2194 220.791 83.3892 219.763 83.3892C218.735 83.3892 217.902 84.2194 217.902 85.2436C217.902 86.2678 218.735 87.0981 219.763 87.0981Z" fill="#EBEBEB" fill-opacity="0.2"/>
        <path d="M1.88796 100.996C2.91568 100.996 3.74882 100.166 3.74882 99.1417C3.74882 98.1175 2.91568 97.2872 1.88796 97.2872C0.860235 97.2872 0.0270996 98.1175 0.0270996 99.1417C0.0270996 100.166 0.860235 100.996 1.88796 100.996Z" fill="#EBEBEB" fill-opacity="0.2"/>
        <path d="M13.355 100.996C14.3827 100.996 15.2159 100.166 15.2159 99.1417C15.2159 98.1175 14.3827 97.2872 13.355 97.2872C12.3273 97.2872 11.4941 98.1175 11.4941 99.1417C11.4941 100.166 12.3273 100.996 13.355 100.996Z" fill="#EBEBEB" fill-opacity="0.2"/>
        <path d="M24.8223 100.996C25.85 100.996 26.6831 100.166 26.6831 99.1417C26.6831 98.1175 25.85 97.2872 24.8223 97.2872C23.7946 97.2872 22.9614 98.1175 22.9614 99.1417C22.9614 100.166 23.7946 100.996 24.8223 100.996Z" fill="#EBEBEB" fill-opacity="0.2"/>
        <path d="M36.2893 100.996C37.317 100.996 38.1502 100.166 38.1502 99.1417C38.1502 98.1175 37.317 97.2872 36.2893 97.2872C35.2616 97.2872 34.4285 98.1175 34.4285 99.1417C34.4285 100.166 35.2616 100.996 36.2893 100.996Z" fill="#EBEBEB" fill-opacity="0.2"/>
        <path d="M47.7564 100.996C48.7841 100.996 49.6172 100.166 49.6172 99.1417C49.6172 98.1175 48.7841 97.2872 47.7564 97.2872C46.7286 97.2872 45.8955 98.1175 45.8955 99.1417C45.8955 100.166 46.7286 100.996 47.7564 100.996Z" fill="#EBEBEB" fill-opacity="0.2"/>
        <path d="M59.2237 100.996C60.2514 100.996 61.0845 100.166 61.0845 99.1417C61.0845 98.1175 60.2514 97.2872 59.2237 97.2872C58.1959 97.2872 57.3628 98.1175 57.3628 99.1417C57.3628 100.166 58.1959 100.996 59.2237 100.996Z" fill="#EBEBEB" fill-opacity="0.2"/>
        <path d="M70.6907 100.996C71.7184 100.996 72.5516 100.166 72.5516 99.1417C72.5516 98.1175 71.7184 97.2872 70.6907 97.2872C69.663 97.2872 68.8298 98.1175 68.8298 99.1417C68.8298 100.166 69.663 100.996 70.6907 100.996Z" fill="#EBEBEB" fill-opacity="0.2"/>
        <path d="M82.1577 100.996C83.1855 100.996 84.0186 100.166 84.0186 99.1417C84.0186 98.1175 83.1855 97.2872 82.1577 97.2872C81.13 97.2872 80.2969 98.1175 80.2969 99.1417C80.2969 100.166 81.13 100.996 82.1577 100.996Z" fill="#EBEBEB" fill-opacity="0.2"/>
        <path d="M93.625 100.996C94.6527 100.996 95.4859 100.166 95.4859 99.1417C95.4859 98.1175 94.6527 97.2872 93.625 97.2872C92.5973 97.2872 91.7642 98.1175 91.7642 99.1417C91.7642 100.166 92.5973 100.996 93.625 100.996Z" fill="#EBEBEB" fill-opacity="0.2"/>
        <path d="M105.092 100.996C106.12 100.996 106.953 100.166 106.953 99.1417C106.953 98.1175 106.12 97.2872 105.092 97.2872C104.064 97.2872 103.231 98.1175 103.231 99.1417C103.231 100.166 104.064 100.996 105.092 100.996Z" fill="#EBEBEB" fill-opacity="0.2"/>
        <path d="M116.559 100.996C117.587 100.996 118.42 100.166 118.42 99.1417C118.42 98.1175 117.587 97.2872 116.559 97.2872C115.531 97.2872 114.698 98.1175 114.698 99.1417C114.698 100.166 115.531 100.996 116.559 100.996Z" fill="#EBEBEB" fill-opacity="0.2"/>
        <path d="M128.026 100.996C129.054 100.996 129.887 100.166 129.887 99.1417C129.887 98.1175 129.054 97.2872 128.026 97.2872C126.999 97.2872 126.166 98.1175 126.166 99.1417C126.166 100.166 126.999 100.996 128.026 100.996Z" fill="#EBEBEB" fill-opacity="0.2"/>
        <path d="M139.493 100.996C140.521 100.996 141.354 100.166 141.354 99.1417C141.354 98.1175 140.521 97.2872 139.493 97.2872C138.466 97.2872 137.633 98.1175 137.633 99.1417C137.633 100.166 138.466 100.996 139.493 100.996Z" fill="#EBEBEB" fill-opacity="0.2"/>
        <path d="M150.96 100.996C151.988 100.996 152.821 100.166 152.821 99.1417C152.821 98.1175 151.988 97.2872 150.96 97.2872C149.933 97.2872 149.1 98.1175 149.1 99.1417C149.1 100.166 149.933 100.996 150.96 100.996Z" fill="#EBEBEB" fill-opacity="0.2"/>
        <path d="M162.428 100.996C163.455 100.996 164.289 100.166 164.289 99.1417C164.289 98.1175 163.455 97.2872 162.428 97.2872C161.4 97.2872 160.567 98.1175 160.567 99.1417C160.567 100.166 161.4 100.996 162.428 100.996Z" fill="#EBEBEB" fill-opacity="0.2"/>
        <path d="M173.895 100.996C174.923 100.996 175.756 100.166 175.756 99.1417C175.756 98.1175 174.923 97.2872 173.895 97.2872C172.867 97.2872 172.034 98.1175 172.034 99.1417C172.034 100.166 172.867 100.996 173.895 100.996Z" fill="#EBEBEB" fill-opacity="0.2"/>
        <path d="M185.362 100.996C186.39 100.996 187.223 100.166 187.223 99.1417C187.223 98.1175 186.39 97.2872 185.362 97.2872C184.334 97.2872 183.501 98.1175 183.501 99.1417C183.501 100.166 184.334 100.996 185.362 100.996Z" fill="#EBEBEB" fill-opacity="0.2"/>
        <path d="M196.829 100.996C197.857 100.996 198.69 100.166 198.69 99.1417C198.69 98.1175 197.857 97.2872 196.829 97.2872C195.801 97.2872 194.968 98.1175 194.968 99.1417C194.968 100.166 195.801 100.996 196.829 100.996Z" fill="#EBEBEB" fill-opacity="0.2"/>
        <path d="M208.296 100.996C209.324 100.996 210.157 100.166 210.157 99.1417C210.157 98.1175 209.324 97.2872 208.296 97.2872C207.268 97.2872 206.435 98.1175 206.435 99.1417C206.435 100.166 207.268 100.996 208.296 100.996Z" fill="#EBEBEB" fill-opacity="0.2"/>
        <path d="M219.763 100.996C220.791 100.996 221.624 100.166 221.624 99.1417C221.624 98.1175 220.791 97.2872 219.763 97.2872C218.735 97.2872 217.902 98.1175 217.902 99.1417C217.902 100.166 218.735 100.996 219.763 100.996Z" fill="#EBEBEB" fill-opacity="0.2"/>
        <path d="M1.88796 114.894C2.91568 114.894 3.74882 114.064 3.74882 113.04C3.74882 112.016 2.91568 111.185 1.88796 111.185C0.860235 111.185 0.0270996 112.016 0.0270996 113.04C0.0270996 114.064 0.860235 114.894 1.88796 114.894Z" fill="#EBEBEB" fill-opacity="0.2"/>
        <path d="M13.355 114.894C14.3827 114.894 15.2159 114.064 15.2159 113.04C15.2159 112.016 14.3827 111.185 13.355 111.185C12.3273 111.185 11.4941 112.016 11.4941 113.04C11.4941 114.064 12.3273 114.894 13.355 114.894Z" fill="#EBEBEB" fill-opacity="0.2"/>
        <path d="M24.8223 114.894C25.85 114.894 26.6831 114.064 26.6831 113.04C26.6831 112.016 25.85 111.185 24.8223 111.185C23.7946 111.185 22.9614 112.016 22.9614 113.04C22.9614 114.064 23.7946 114.894 24.8223 114.894Z" fill="#EBEBEB" fill-opacity="0.2"/>
        <path d="M36.2893 114.894C37.317 114.894 38.1502 114.064 38.1502 113.04C38.1502 112.016 37.317 111.185 36.2893 111.185C35.2616 111.185 34.4285 112.016 34.4285 113.04C34.4285 114.064 35.2616 114.894 36.2893 114.894Z" fill="#EBEBEB" fill-opacity="0.2"/>
        <path d="M47.7564 114.894C48.7841 114.894 49.6172 114.064 49.6172 113.04C49.6172 112.016 48.7841 111.185 47.7564 111.185C46.7286 111.185 45.8955 112.016 45.8955 113.04C45.8955 114.064 46.7286 114.894 47.7564 114.894Z" fill="#EBEBEB" fill-opacity="0.2"/>
        <path d="M59.2237 114.894C60.2514 114.894 61.0845 114.064 61.0845 113.04C61.0845 112.016 60.2514 111.185 59.2237 111.185C58.1959 111.185 57.3628 112.016 57.3628 113.04C57.3628 114.064 58.1959 114.894 59.2237 114.894Z" fill="#EBEBEB" fill-opacity="0.2"/>
        <path d="M70.6907 114.894C71.7184 114.894 72.5516 114.064 72.5516 113.04C72.5516 112.016 71.7184 111.185 70.6907 111.185C69.663 111.185 68.8298 112.016 68.8298 113.04C68.8298 114.064 69.663 114.894 70.6907 114.894Z" fill="#EBEBEB" fill-opacity="0.2"/>
        <path d="M82.1577 114.894C83.1855 114.894 84.0186 114.064 84.0186 113.04C84.0186 112.016 83.1855 111.185 82.1577 111.185C81.13 111.185 80.2969 112.016 80.2969 113.04C80.2969 114.064 81.13 114.894 82.1577 114.894Z" fill="#EBEBEB" fill-opacity="0.2"/>
        <path d="M93.625 114.894C94.6527 114.894 95.4859 114.064 95.4859 113.04C95.4859 112.016 94.6527 111.185 93.625 111.185C92.5973 111.185 91.7642 112.016 91.7642 113.04C91.7642 114.064 92.5973 114.894 93.625 114.894Z" fill="#EBEBEB" fill-opacity="0.2"/>
        <path d="M105.092 114.894C106.12 114.894 106.953 114.064 106.953 113.04C106.953 112.016 106.12 111.185 105.092 111.185C104.064 111.185 103.231 112.016 103.231 113.04C103.231 114.064 104.064 114.894 105.092 114.894Z" fill="#EBEBEB" fill-opacity="0.2"/>
        <path d="M116.559 114.894C117.587 114.894 118.42 114.064 118.42 113.04C118.42 112.016 117.587 111.185 116.559 111.185C115.531 111.185 114.698 112.016 114.698 113.04C114.698 114.064 115.531 114.894 116.559 114.894Z" fill="#EBEBEB" fill-opacity="0.2"/>
        <path d="M128.026 114.894C129.054 114.894 129.887 114.064 129.887 113.04C129.887 112.016 129.054 111.185 128.026 111.185C126.999 111.185 126.166 112.016 126.166 113.04C126.166 114.064 126.999 114.894 128.026 114.894Z" fill="#EBEBEB" fill-opacity="0.2"/>
        <path d="M139.493 114.894C140.521 114.894 141.354 114.064 141.354 113.04C141.354 112.016 140.521 111.185 139.493 111.185C138.466 111.185 137.633 112.016 137.633 113.04C137.633 114.064 138.466 114.894 139.493 114.894Z" fill="#EBEBEB" fill-opacity="0.2"/>
        <path d="M150.96 114.894C151.988 114.894 152.821 114.064 152.821 113.04C152.821 112.016 151.988 111.185 150.96 111.185C149.933 111.185 149.1 112.016 149.1 113.04C149.1 114.064 149.933 114.894 150.96 114.894Z" fill="#EBEBEB" fill-opacity="0.2"/>
        <path d="M162.428 114.894C163.455 114.894 164.289 114.064 164.289 113.04C164.289 112.016 163.455 111.185 162.428 111.185C161.4 111.185 160.567 112.016 160.567 113.04C160.567 114.064 161.4 114.894 162.428 114.894Z" fill="#EBEBEB" fill-opacity="0.2"/>
        <path d="M173.895 114.894C174.923 114.894 175.756 114.064 175.756 113.04C175.756 112.016 174.923 111.185 173.895 111.185C172.867 111.185 172.034 112.016 172.034 113.04C172.034 114.064 172.867 114.894 173.895 114.894Z" fill="#EBEBEB" fill-opacity="0.2"/>
        <path d="M185.362 114.894C186.39 114.894 187.223 114.064 187.223 113.04C187.223 112.016 186.39 111.185 185.362 111.185C184.334 111.185 183.501 112.016 183.501 113.04C183.501 114.064 184.334 114.894 185.362 114.894Z" fill="#EBEBEB" fill-opacity="0.2"/>
        <path d="M196.829 114.894C197.857 114.894 198.69 114.064 198.69 113.04C198.69 112.016 197.857 111.185 196.829 111.185C195.801 111.185 194.968 112.016 194.968 113.04C194.968 114.064 195.801 114.894 196.829 114.894Z" fill="#EBEBEB" fill-opacity="0.2"/>
        <path d="M208.296 114.894C209.324 114.894 210.157 114.064 210.157 113.04C210.157 112.016 209.324 111.185 208.296 111.185C207.268 111.185 206.435 112.016 206.435 113.04C206.435 114.064 207.268 114.894 208.296 114.894Z" fill="#EBEBEB" fill-opacity="0.2"/>
        <path d="M219.763 114.894C220.791 114.894 221.624 114.064 221.624 113.04C221.624 112.016 220.791 111.185 219.763 111.185C218.735 111.185 217.902 112.016 217.902 113.04C217.902 114.064 218.735 114.894 219.763 114.894Z" fill="#EBEBEB" fill-opacity="0.2"/>
        <path d="M1.88796 128.792C2.91568 128.792 3.74882 127.962 3.74882 126.938C3.74882 125.914 2.91568 125.083 1.88796 125.083C0.860235 125.083 0.0270996 125.914 0.0270996 126.938C0.0270996 127.962 0.860235 128.792 1.88796 128.792Z" fill="#EBEBEB" fill-opacity="0.2"/>
        <path d="M13.355 128.792C14.3827 128.792 15.2159 127.962 15.2159 126.938C15.2159 125.914 14.3827 125.083 13.355 125.083C12.3273 125.083 11.4941 125.914 11.4941 126.938C11.4941 127.962 12.3273 128.792 13.355 128.792Z" fill="#EBEBEB" fill-opacity="0.2"/>
        <path d="M24.8223 128.792C25.85 128.792 26.6831 127.962 26.6831 126.938C26.6831 125.914 25.85 125.083 24.8223 125.083C23.7946 125.083 22.9614 125.914 22.9614 126.938C22.9614 127.962 23.7946 128.792 24.8223 128.792Z" fill="#EBEBEB" fill-opacity="0.2"/>
        <path d="M36.2893 128.792C37.317 128.792 38.1502 127.962 38.1502 126.938C38.1502 125.914 37.317 125.083 36.2893 125.083C35.2616 125.083 34.4285 125.914 34.4285 126.938C34.4285 127.962 35.2616 128.792 36.2893 128.792Z" fill="#EBEBEB" fill-opacity="0.2"/>
        <path d="M47.7564 128.792C48.7841 128.792 49.6172 127.962 49.6172 126.938C49.6172 125.914 48.7841 125.083 47.7564 125.083C46.7286 125.083 45.8955 125.914 45.8955 126.938C45.8955 127.962 46.7286 128.792 47.7564 128.792Z" fill="#EBEBEB" fill-opacity="0.2"/>
        <path d="M59.2237 128.792C60.2514 128.792 61.0845 127.962 61.0845 126.938C61.0845 125.914 60.2514 125.083 59.2237 125.083C58.1959 125.083 57.3628 125.914 57.3628 126.938C57.3628 127.962 58.1959 128.792 59.2237 128.792Z" fill="#EBEBEB" fill-opacity="0.2"/>
        <path d="M70.6907 128.792C71.7184 128.792 72.5516 127.962 72.5516 126.938C72.5516 125.914 71.7184 125.083 70.6907 125.083C69.663 125.083 68.8298 125.914 68.8298 126.938C68.8298 127.962 69.663 128.792 70.6907 128.792Z" fill="#EBEBEB" fill-opacity="0.2"/>
        <path d="M82.1577 128.792C83.1855 128.792 84.0186 127.962 84.0186 126.938C84.0186 125.914 83.1855 125.083 82.1577 125.083C81.13 125.083 80.2969 125.914 80.2969 126.938C80.2969 127.962 81.13 128.792 82.1577 128.792Z" fill="#EBEBEB" fill-opacity="0.2"/>
        <path d="M93.625 128.792C94.6527 128.792 95.4859 127.962 95.4859 126.938C95.4859 125.914 94.6527 125.083 93.625 125.083C92.5973 125.083 91.7642 125.914 91.7642 126.938C91.7642 127.962 92.5973 128.792 93.625 128.792Z" fill="#EBEBEB" fill-opacity="0.2"/>
        <path d="M105.092 128.792C106.12 128.792 106.953 127.962 106.953 126.938C106.953 125.914 106.12 125.083 105.092 125.083C104.064 125.083 103.231 125.914 103.231 126.938C103.231 127.962 104.064 128.792 105.092 128.792Z" fill="#EBEBEB" fill-opacity="0.2"/>
        <path d="M116.559 128.792C117.587 128.792 118.42 127.962 118.42 126.938C118.42 125.914 117.587 125.083 116.559 125.083C115.531 125.083 114.698 125.914 114.698 126.938C114.698 127.962 115.531 128.792 116.559 128.792Z" fill="#EBEBEB" fill-opacity="0.2"/>
        <path d="M128.026 128.792C129.054 128.792 129.887 127.962 129.887 126.938C129.887 125.914 129.054 125.083 128.026 125.083C126.999 125.083 126.166 125.914 126.166 126.938C126.166 127.962 126.999 128.792 128.026 128.792Z" fill="#EBEBEB" fill-opacity="0.2"/>
        <path d="M139.493 128.792C140.521 128.792 141.354 127.962 141.354 126.938C141.354 125.914 140.521 125.083 139.493 125.083C138.466 125.083 137.633 125.914 137.633 126.938C137.633 127.962 138.466 128.792 139.493 128.792Z" fill="#EBEBEB" fill-opacity="0.2"/>
        <path d="M150.96 128.792C151.988 128.792 152.821 127.962 152.821 126.938C152.821 125.914 151.988 125.083 150.96 125.083C149.933 125.083 149.1 125.914 149.1 126.938C149.1 127.962 149.933 128.792 150.96 128.792Z" fill="#EBEBEB" fill-opacity="0.2"/>
        <path d="M162.428 128.792C163.455 128.792 164.289 127.962 164.289 126.938C164.289 125.914 163.455 125.083 162.428 125.083C161.4 125.083 160.567 125.914 160.567 126.938C160.567 127.962 161.4 128.792 162.428 128.792Z" fill="#EBEBEB" fill-opacity="0.2"/>
        <path d="M173.895 128.792C174.923 128.792 175.756 127.962 175.756 126.938C175.756 125.914 174.923 125.083 173.895 125.083C172.867 125.083 172.034 125.914 172.034 126.938C172.034 127.962 172.867 128.792 173.895 128.792Z" fill="#EBEBEB" fill-opacity="0.2"/>
        <path d="M185.362 128.792C186.39 128.792 187.223 127.962 187.223 126.938C187.223 125.914 186.39 125.083 185.362 125.083C184.334 125.083 183.501 125.914 183.501 126.938C183.501 127.962 184.334 128.792 185.362 128.792Z" fill="#EBEBEB" fill-opacity="0.2"/>
        <path d="M196.829 128.792C197.857 128.792 198.69 127.962 198.69 126.938C198.69 125.914 197.857 125.083 196.829 125.083C195.801 125.083 194.968 125.914 194.968 126.938C194.968 127.962 195.801 128.792 196.829 128.792Z" fill="#EBEBEB" fill-opacity="0.2"/>
        <path d="M208.296 128.792C209.324 128.792 210.157 127.962 210.157 126.938C210.157 125.914 209.324 125.083 208.296 125.083C207.268 125.083 206.435 125.914 206.435 126.938C206.435 127.962 207.268 128.792 208.296 128.792Z" fill="#EBEBEB" fill-opacity="0.2"/>
        <path d="M219.763 128.792C220.791 128.792 221.624 127.962 221.624 126.938C221.624 125.914 220.791 125.083 219.763 125.083C218.735 125.083 217.902 125.914 217.902 126.938C217.902 127.962 218.735 128.792 219.763 128.792Z" fill="#EBEBEB" fill-opacity="0.2"/>
        <path d="M1.88796 142.69C2.91568 142.69 3.74882 141.86 3.74882 140.836C3.74882 139.812 2.91568 138.981 1.88796 138.981C0.860235 138.981 0.0270996 139.812 0.0270996 140.836C0.0270996 141.86 0.860235 142.69 1.88796 142.69Z" fill="#EBEBEB" fill-opacity="0.2"/>
        <path d="M13.355 142.69C14.3827 142.69 15.2159 141.86 15.2159 140.836C15.2159 139.812 14.3827 138.981 13.355 138.981C12.3273 138.981 11.4941 139.812 11.4941 140.836C11.4941 141.86 12.3273 142.69 13.355 142.69Z" fill="#EBEBEB" fill-opacity="0.2"/>
        <path d="M24.8223 142.69C25.85 142.69 26.6831 141.86 26.6831 140.836C26.6831 139.812 25.85 138.981 24.8223 138.981C23.7946 138.981 22.9614 139.812 22.9614 140.836C22.9614 141.86 23.7946 142.69 24.8223 142.69Z" fill="#EBEBEB" fill-opacity="0.2"/>
        <path d="M36.2893 142.69C37.317 142.69 38.1502 141.86 38.1502 140.836C38.1502 139.812 37.317 138.981 36.2893 138.981C35.2616 138.981 34.4285 139.812 34.4285 140.836C34.4285 141.86 35.2616 142.69 36.2893 142.69Z" fill="#EBEBEB" fill-opacity="0.2"/>
        <path d="M47.7564 142.69C48.7841 142.69 49.6172 141.86 49.6172 140.836C49.6172 139.812 48.7841 138.981 47.7564 138.981C46.7286 138.981 45.8955 139.812 45.8955 140.836C45.8955 141.86 46.7286 142.69 47.7564 142.69Z" fill="#EBEBEB" fill-opacity="0.2"/>
        <path d="M59.2237 142.69C60.2514 142.69 61.0845 141.86 61.0845 140.836C61.0845 139.812 60.2514 138.981 59.2237 138.981C58.1959 138.981 57.3628 139.812 57.3628 140.836C57.3628 141.86 58.1959 142.69 59.2237 142.69Z" fill="#EBEBEB" fill-opacity="0.2"/>
        <path d="M70.6907 142.69C71.7184 142.69 72.5516 141.86 72.5516 140.836C72.5516 139.812 71.7184 138.981 70.6907 138.981C69.663 138.981 68.8298 139.812 68.8298 140.836C68.8298 141.86 69.663 142.69 70.6907 142.69Z" fill="#EBEBEB" fill-opacity="0.2"/>
        <path d="M82.1577 142.69C83.1855 142.69 84.0186 141.86 84.0186 140.836C84.0186 139.812 83.1855 138.981 82.1577 138.981C81.13 138.981 80.2969 139.812 80.2969 140.836C80.2969 141.86 81.13 142.69 82.1577 142.69Z" fill="#EBEBEB" fill-opacity="0.2"/>
        <path d="M93.625 142.69C94.6527 142.69 95.4859 141.86 95.4859 140.836C95.4859 139.812 94.6527 138.981 93.625 138.981C92.5973 138.981 91.7642 139.812 91.7642 140.836C91.7642 141.86 92.5973 142.69 93.625 142.69Z" fill="#EBEBEB" fill-opacity="0.2"/>
        <path d="M105.092 142.69C106.12 142.69 106.953 141.86 106.953 140.836C106.953 139.812 106.12 138.981 105.092 138.981C104.064 138.981 103.231 139.812 103.231 140.836C103.231 141.86 104.064 142.69 105.092 142.69Z" fill="#EBEBEB" fill-opacity="0.2"/>
        <path d="M116.559 142.69C117.587 142.69 118.42 141.86 118.42 140.836C118.42 139.812 117.587 138.981 116.559 138.981C115.531 138.981 114.698 139.812 114.698 140.836C114.698 141.86 115.531 142.69 116.559 142.69Z" fill="#EBEBEB" fill-opacity="0.2"/>
        <path d="M128.026 142.69C129.054 142.69 129.887 141.86 129.887 140.836C129.887 139.812 129.054 138.981 128.026 138.981C126.999 138.981 126.166 139.812 126.166 140.836C126.166 141.86 126.999 142.69 128.026 142.69Z" fill="#EBEBEB" fill-opacity="0.2"/>
        <path d="M139.493 142.69C140.521 142.69 141.354 141.86 141.354 140.836C141.354 139.812 140.521 138.981 139.493 138.981C138.466 138.981 137.633 139.812 137.633 140.836C137.633 141.86 138.466 142.69 139.493 142.69Z" fill="#EBEBEB" fill-opacity="0.2"/>
        <path d="M150.96 142.69C151.988 142.69 152.821 141.86 152.821 140.836C152.821 139.812 151.988 138.981 150.96 138.981C149.933 138.981 149.1 139.812 149.1 140.836C149.1 141.86 149.933 142.69 150.96 142.69Z" fill="#EBEBEB" fill-opacity="0.2"/>
        <path d="M162.428 142.69C163.455 142.69 164.289 141.86 164.289 140.836C164.289 139.812 163.455 138.981 162.428 138.981C161.4 138.981 160.567 139.812 160.567 140.836C160.567 141.86 161.4 142.69 162.428 142.69Z" fill="#EBEBEB" fill-opacity="0.2"/>
        <path d="M173.895 142.69C174.923 142.69 175.756 141.86 175.756 140.836C175.756 139.812 174.923 138.981 173.895 138.981C172.867 138.981 172.034 139.812 172.034 140.836C172.034 141.86 172.867 142.69 173.895 142.69Z" fill="#EBEBEB" fill-opacity="0.2"/>
        <path d="M185.362 142.69C186.39 142.69 187.223 141.86 187.223 140.836C187.223 139.812 186.39 138.981 185.362 138.981C184.334 138.981 183.501 139.812 183.501 140.836C183.501 141.86 184.334 142.69 185.362 142.69Z" fill="#EBEBEB" fill-opacity="0.2"/>
        <path d="M196.829 142.69C197.857 142.69 198.69 141.86 198.69 140.836C198.69 139.812 197.857 138.981 196.829 138.981C195.801 138.981 194.968 139.812 194.968 140.836C194.968 141.86 195.801 142.69 196.829 142.69Z" fill="#EBEBEB" fill-opacity="0.2"/>
        <path d="M208.296 142.69C209.324 142.69 210.157 141.86 210.157 140.836C210.157 139.812 209.324 138.981 208.296 138.981C207.268 138.981 206.435 139.812 206.435 140.836C206.435 141.86 207.268 142.69 208.296 142.69Z" fill="#EBEBEB" fill-opacity="0.2"/>
        <path d="M219.763 142.69C220.791 142.69 221.624 141.86 221.624 140.836C221.624 139.812 220.791 138.981 219.763 138.981C218.735 138.981 217.902 139.812 217.902 140.836C217.902 141.86 218.735 142.69 219.763 142.69Z" fill="#EBEBEB" fill-opacity="0.2"/>
        <path d="M1.88796 156.588C2.91568 156.588 3.74882 155.758 3.74882 154.734C3.74882 153.71 2.91568 152.88 1.88796 152.88C0.860235 152.88 0.0270996 153.71 0.0270996 154.734C0.0270996 155.758 0.860235 156.588 1.88796 156.588Z" fill="#EBEBEB" fill-opacity="0.2"/>
        <path d="M13.355 156.588C14.3827 156.588 15.2159 155.758 15.2159 154.734C15.2159 153.71 14.3827 152.88 13.355 152.88C12.3273 152.88 11.4941 153.71 11.4941 154.734C11.4941 155.758 12.3273 156.588 13.355 156.588Z" fill="#EBEBEB" fill-opacity="0.2"/>
        <path d="M24.8223 156.588C25.85 156.588 26.6831 155.758 26.6831 154.734C26.6831 153.71 25.85 152.88 24.8223 152.88C23.7946 152.88 22.9614 153.71 22.9614 154.734C22.9614 155.758 23.7946 156.588 24.8223 156.588Z" fill="#EBEBEB" fill-opacity="0.2"/>
        <path d="M36.2893 156.588C37.317 156.588 38.1502 155.758 38.1502 154.734C38.1502 153.71 37.317 152.88 36.2893 152.88C35.2616 152.88 34.4285 153.71 34.4285 154.734C34.4285 155.758 35.2616 156.588 36.2893 156.588Z" fill="#EBEBEB" fill-opacity="0.2"/>
        <path d="M47.7564 156.588C48.7841 156.588 49.6172 155.758 49.6172 154.734C49.6172 153.71 48.7841 152.88 47.7564 152.88C46.7286 152.88 45.8955 153.71 45.8955 154.734C45.8955 155.758 46.7286 156.588 47.7564 156.588Z" fill="#EBEBEB" fill-opacity="0.2"/>
        <path d="M59.2237 156.588C60.2514 156.588 61.0845 155.758 61.0845 154.734C61.0845 153.71 60.2514 152.88 59.2237 152.88C58.1959 152.88 57.3628 153.71 57.3628 154.734C57.3628 155.758 58.1959 156.588 59.2237 156.588Z" fill="#EBEBEB" fill-opacity="0.2"/>
        <path d="M70.6907 156.588C71.7184 156.588 72.5516 155.758 72.5516 154.734C72.5516 153.71 71.7184 152.88 70.6907 152.88C69.663 152.88 68.8298 153.71 68.8298 154.734C68.8298 155.758 69.663 156.588 70.6907 156.588Z" fill="#EBEBEB" fill-opacity="0.2"/>
        <path d="M82.1577 156.588C83.1855 156.588 84.0186 155.758 84.0186 154.734C84.0186 153.71 83.1855 152.88 82.1577 152.88C81.13 152.88 80.2969 153.71 80.2969 154.734C80.2969 155.758 81.13 156.588 82.1577 156.588Z" fill="#EBEBEB" fill-opacity="0.2"/>
        <path d="M93.625 156.588C94.6527 156.588 95.4859 155.758 95.4859 154.734C95.4859 153.71 94.6527 152.88 93.625 152.88C92.5973 152.88 91.7642 153.71 91.7642 154.734C91.7642 155.758 92.5973 156.588 93.625 156.588Z" fill="#EBEBEB" fill-opacity="0.2"/>
        <path d="M105.092 156.588C106.12 156.588 106.953 155.758 106.953 154.734C106.953 153.71 106.12 152.88 105.092 152.88C104.064 152.88 103.231 153.71 103.231 154.734C103.231 155.758 104.064 156.588 105.092 156.588Z" fill="#EBEBEB" fill-opacity="0.2"/>
        <path d="M116.559 156.588C117.587 156.588 118.42 155.758 118.42 154.734C118.42 153.71 117.587 152.88 116.559 152.88C115.531 152.88 114.698 153.71 114.698 154.734C114.698 155.758 115.531 156.588 116.559 156.588Z" fill="#EBEBEB" fill-opacity="0.2"/>
        <path d="M128.026 156.588C129.054 156.588 129.887 155.758 129.887 154.734C129.887 153.71 129.054 152.88 128.026 152.88C126.999 152.88 126.166 153.71 126.166 154.734C126.166 155.758 126.999 156.588 128.026 156.588Z" fill="#EBEBEB" fill-opacity="0.2"/>
        <path d="M139.493 156.588C140.521 156.588 141.354 155.758 141.354 154.734C141.354 153.71 140.521 152.88 139.493 152.88C138.466 152.88 137.633 153.71 137.633 154.734C137.633 155.758 138.466 156.588 139.493 156.588Z" fill="#EBEBEB" fill-opacity="0.2"/>
        <path d="M150.96 156.588C151.988 156.588 152.821 155.758 152.821 154.734C152.821 153.71 151.988 152.88 150.96 152.88C149.933 152.88 149.1 153.71 149.1 154.734C149.1 155.758 149.933 156.588 150.96 156.588Z" fill="#EBEBEB" fill-opacity="0.2"/>
        <path d="M162.428 156.588C163.455 156.588 164.289 155.758 164.289 154.734C164.289 153.71 163.455 152.88 162.428 152.88C161.4 152.88 160.567 153.71 160.567 154.734C160.567 155.758 161.4 156.588 162.428 156.588Z" fill="#EBEBEB" fill-opacity="0.2"/>
        <path d="M173.895 156.588C174.923 156.588 175.756 155.758 175.756 154.734C175.756 153.71 174.923 152.88 173.895 152.88C172.867 152.88 172.034 153.71 172.034 154.734C172.034 155.758 172.867 156.588 173.895 156.588Z" fill="#EBEBEB" fill-opacity="0.2"/>
        <path d="M185.362 156.588C186.39 156.588 187.223 155.758 187.223 154.734C187.223 153.71 186.39 152.88 185.362 152.88C184.334 152.88 183.501 153.71 183.501 154.734C183.501 155.758 184.334 156.588 185.362 156.588Z" fill="#EBEBEB" fill-opacity="0.2"/>
        <path d="M196.829 156.588C197.857 156.588 198.69 155.758 198.69 154.734C198.69 153.71 197.857 152.88 196.829 152.88C195.801 152.88 194.968 153.71 194.968 154.734C194.968 155.758 195.801 156.588 196.829 156.588Z" fill="#EBEBEB" fill-opacity="0.2"/>
        <path d="M208.296 156.588C209.324 156.588 210.157 155.758 210.157 154.734C210.157 153.71 209.324 152.88 208.296 152.88C207.268 152.88 206.435 153.71 206.435 154.734C206.435 155.758 207.268 156.588 208.296 156.588Z" fill="#EBEBEB" fill-opacity="0.2"/>
        <path d="M219.763 156.588C220.791 156.588 221.624 155.758 221.624 154.734C221.624 153.71 220.791 152.88 219.763 152.88C218.735 152.88 217.902 153.71 217.902 154.734C217.902 155.758 218.735 156.588 219.763 156.588Z" fill="#EBEBEB" fill-opacity="0.2"/>
        <path d="M1.88796 170.487C2.91568 170.487 3.74882 169.656 3.74882 168.632C3.74882 167.608 2.91568 166.778 1.88796 166.778C0.860235 166.778 0.0270996 167.608 0.0270996 168.632C0.0270996 169.656 0.860235 170.487 1.88796 170.487Z" fill="#EBEBEB" fill-opacity="0.2"/>
        <path d="M13.355 170.487C14.3827 170.487 15.2159 169.656 15.2159 168.632C15.2159 167.608 14.3827 166.778 13.355 166.778C12.3273 166.778 11.4941 167.608 11.4941 168.632C11.4941 169.656 12.3273 170.487 13.355 170.487Z" fill="#EBEBEB" fill-opacity="0.2"/>
        <path d="M24.8223 170.487C25.85 170.487 26.6831 169.656 26.6831 168.632C26.6831 167.608 25.85 166.778 24.8223 166.778C23.7946 166.778 22.9614 167.608 22.9614 168.632C22.9614 169.656 23.7946 170.487 24.8223 170.487Z" fill="#EBEBEB" fill-opacity="0.2"/>
        <path d="M36.2893 170.487C37.317 170.487 38.1502 169.656 38.1502 168.632C38.1502 167.608 37.317 166.778 36.2893 166.778C35.2616 166.778 34.4285 167.608 34.4285 168.632C34.4285 169.656 35.2616 170.487 36.2893 170.487Z" fill="#EBEBEB" fill-opacity="0.2"/>
        <path d="M47.7564 170.487C48.7841 170.487 49.6172 169.656 49.6172 168.632C49.6172 167.608 48.7841 166.778 47.7564 166.778C46.7286 166.778 45.8955 167.608 45.8955 168.632C45.8955 169.656 46.7286 170.487 47.7564 170.487Z" fill="#EBEBEB" fill-opacity="0.2"/>
        <path d="M59.2237 170.487C60.2514 170.487 61.0845 169.656 61.0845 168.632C61.0845 167.608 60.2514 166.778 59.2237 166.778C58.1959 166.778 57.3628 167.608 57.3628 168.632C57.3628 169.656 58.1959 170.487 59.2237 170.487Z" fill="#EBEBEB" fill-opacity="0.2"/>
        <path d="M70.6907 170.487C71.7184 170.487 72.5516 169.656 72.5516 168.632C72.5516 167.608 71.7184 166.778 70.6907 166.778C69.663 166.778 68.8298 167.608 68.8298 168.632C68.8298 169.656 69.663 170.487 70.6907 170.487Z" fill="#EBEBEB" fill-opacity="0.2"/>
        <path d="M82.1577 170.487C83.1855 170.487 84.0186 169.656 84.0186 168.632C84.0186 167.608 83.1855 166.778 82.1577 166.778C81.13 166.778 80.2969 167.608 80.2969 168.632C80.2969 169.656 81.13 170.487 82.1577 170.487Z" fill="#EBEBEB" fill-opacity="0.2"/>
        <path d="M93.625 170.487C94.6527 170.487 95.4859 169.656 95.4859 168.632C95.4859 167.608 94.6527 166.778 93.625 166.778C92.5973 166.778 91.7642 167.608 91.7642 168.632C91.7642 169.656 92.5973 170.487 93.625 170.487Z" fill="#EBEBEB" fill-opacity="0.2"/>
        <path d="M105.092 170.487C106.12 170.487 106.953 169.656 106.953 168.632C106.953 167.608 106.12 166.778 105.092 166.778C104.064 166.778 103.231 167.608 103.231 168.632C103.231 169.656 104.064 170.487 105.092 170.487Z" fill="#EBEBEB" fill-opacity="0.2"/>
        <path d="M116.559 170.487C117.587 170.487 118.42 169.656 118.42 168.632C118.42 167.608 117.587 166.778 116.559 166.778C115.531 166.778 114.698 167.608 114.698 168.632C114.698 169.656 115.531 170.487 116.559 170.487Z" fill="#EBEBEB" fill-opacity="0.2"/>
        <path d="M128.026 170.487C129.054 170.487 129.887 169.656 129.887 168.632C129.887 167.608 129.054 166.778 128.026 166.778C126.999 166.778 126.166 167.608 126.166 168.632C126.166 169.656 126.999 170.487 128.026 170.487Z" fill="#EBEBEB" fill-opacity="0.2"/>
        <path d="M139.493 170.487C140.521 170.487 141.354 169.656 141.354 168.632C141.354 167.608 140.521 166.778 139.493 166.778C138.466 166.778 137.633 167.608 137.633 168.632C137.633 169.656 138.466 170.487 139.493 170.487Z" fill="#EBEBEB" fill-opacity="0.2"/>
        <path d="M150.96 170.487C151.988 170.487 152.821 169.656 152.821 168.632C152.821 167.608 151.988 166.778 150.96 166.778C149.933 166.778 149.1 167.608 149.1 168.632C149.1 169.656 149.933 170.487 150.96 170.487Z" fill="#EBEBEB" fill-opacity="0.2"/>
        <path d="M162.428 170.487C163.455 170.487 164.289 169.656 164.289 168.632C164.289 167.608 163.455 166.778 162.428 166.778C161.4 166.778 160.567 167.608 160.567 168.632C160.567 169.656 161.4 170.487 162.428 170.487Z" fill="#EBEBEB" fill-opacity="0.2"/>
        <path d="M173.895 170.487C174.923 170.487 175.756 169.656 175.756 168.632C175.756 167.608 174.923 166.778 173.895 166.778C172.867 166.778 172.034 167.608 172.034 168.632C172.034 169.656 172.867 170.487 173.895 170.487Z" fill="#EBEBEB" fill-opacity="0.2"/>
        <path d="M185.362 170.487C186.39 170.487 187.223 169.656 187.223 168.632C187.223 167.608 186.39 166.778 185.362 166.778C184.334 166.778 183.501 167.608 183.501 168.632C183.501 169.656 184.334 170.487 185.362 170.487Z" fill="#EBEBEB" fill-opacity="0.2"/>
        <path d="M196.829 170.487C197.857 170.487 198.69 169.656 198.69 168.632C198.69 167.608 197.857 166.778 196.829 166.778C195.801 166.778 194.968 167.608 194.968 168.632C194.968 169.656 195.801 170.487 196.829 170.487Z" fill="#EBEBEB" fill-opacity="0.2"/>
        <path d="M208.296 170.487C209.324 170.487 210.157 169.656 210.157 168.632C210.157 167.608 209.324 166.778 208.296 166.778C207.268 166.778 206.435 167.608 206.435 168.632C206.435 169.656 207.268 170.487 208.296 170.487Z" fill="#EBEBEB" fill-opacity="0.2"/>
        <path d="M219.763 170.487C220.791 170.487 221.624 169.656 221.624 168.632C221.624 167.608 220.791 166.778 219.763 166.778C218.735 166.778 217.902 167.608 217.902 168.632C217.902 169.656 218.735 170.487 219.763 170.487Z" fill="#EBEBEB" fill-opacity="0.2"/>
        <path d="M1.88796 184.385C2.91568 184.385 3.74882 183.554 3.74882 182.53C3.74882 181.506 2.91568 180.676 1.88796 180.676C0.860235 180.676 0.0270996 181.506 0.0270996 182.53C0.0270996 183.554 0.860235 184.385 1.88796 184.385Z" fill="#EBEBEB" fill-opacity="0.2"/>
        <path d="M13.355 184.385C14.3827 184.385 15.2159 183.554 15.2159 182.53C15.2159 181.506 14.3827 180.676 13.355 180.676C12.3273 180.676 11.4941 181.506 11.4941 182.53C11.4941 183.554 12.3273 184.385 13.355 184.385Z" fill="#EBEBEB" fill-opacity="0.2"/>
        <path d="M24.8223 184.385C25.85 184.385 26.6831 183.554 26.6831 182.53C26.6831 181.506 25.85 180.676 24.8223 180.676C23.7946 180.676 22.9614 181.506 22.9614 182.53C22.9614 183.554 23.7946 184.385 24.8223 184.385Z" fill="#EBEBEB" fill-opacity="0.2"/>
        <path d="M36.2893 184.385C37.317 184.385 38.1502 183.554 38.1502 182.53C38.1502 181.506 37.317 180.676 36.2893 180.676C35.2616 180.676 34.4285 181.506 34.4285 182.53C34.4285 183.554 35.2616 184.385 36.2893 184.385Z" fill="#EBEBEB" fill-opacity="0.2"/>
        <path d="M47.7564 184.385C48.7841 184.385 49.6172 183.554 49.6172 182.53C49.6172 181.506 48.7841 180.676 47.7564 180.676C46.7286 180.676 45.8955 181.506 45.8955 182.53C45.8955 183.554 46.7286 184.385 47.7564 184.385Z" fill="#EBEBEB" fill-opacity="0.2"/>
        <path d="M59.2237 184.385C60.2514 184.385 61.0845 183.554 61.0845 182.53C61.0845 181.506 60.2514 180.676 59.2237 180.676C58.1959 180.676 57.3628 181.506 57.3628 182.53C57.3628 183.554 58.1959 184.385 59.2237 184.385Z" fill="#EBEBEB" fill-opacity="0.2"/>
        <path d="M70.6907 184.385C71.7184 184.385 72.5516 183.554 72.5516 182.53C72.5516 181.506 71.7184 180.676 70.6907 180.676C69.663 180.676 68.8298 181.506 68.8298 182.53C68.8298 183.554 69.663 184.385 70.6907 184.385Z" fill="#EBEBEB" fill-opacity="0.2"/>
        <path d="M82.1577 184.385C83.1855 184.385 84.0186 183.554 84.0186 182.53C84.0186 181.506 83.1855 180.676 82.1577 180.676C81.13 180.676 80.2969 181.506 80.2969 182.53C80.2969 183.554 81.13 184.385 82.1577 184.385Z" fill="#EBEBEB" fill-opacity="0.2"/>
        <path d="M93.625 184.385C94.6527 184.385 95.4859 183.554 95.4859 182.53C95.4859 181.506 94.6527 180.676 93.625 180.676C92.5973 180.676 91.7642 181.506 91.7642 182.53C91.7642 183.554 92.5973 184.385 93.625 184.385Z" fill="#EBEBEB" fill-opacity="0.2"/>
        <path d="M105.092 184.385C106.12 184.385 106.953 183.554 106.953 182.53C106.953 181.506 106.12 180.676 105.092 180.676C104.064 180.676 103.231 181.506 103.231 182.53C103.231 183.554 104.064 184.385 105.092 184.385Z" fill="#EBEBEB" fill-opacity="0.2"/>
        <path d="M116.559 184.385C117.587 184.385 118.42 183.554 118.42 182.53C118.42 181.506 117.587 180.676 116.559 180.676C115.531 180.676 114.698 181.506 114.698 182.53C114.698 183.554 115.531 184.385 116.559 184.385Z" fill="#EBEBEB" fill-opacity="0.2"/>
        <path d="M128.026 184.385C129.054 184.385 129.887 183.554 129.887 182.53C129.887 181.506 129.054 180.676 128.026 180.676C126.999 180.676 126.166 181.506 126.166 182.53C126.166 183.554 126.999 184.385 128.026 184.385Z" fill="#EBEBEB" fill-opacity="0.2"/>
        <path d="M139.493 184.385C140.521 184.385 141.354 183.554 141.354 182.53C141.354 181.506 140.521 180.676 139.493 180.676C138.466 180.676 137.633 181.506 137.633 182.53C137.633 183.554 138.466 184.385 139.493 184.385Z" fill="#EBEBEB" fill-opacity="0.2"/>
        <path d="M150.96 184.385C151.988 184.385 152.821 183.554 152.821 182.53C152.821 181.506 151.988 180.676 150.96 180.676C149.933 180.676 149.1 181.506 149.1 182.53C149.1 183.554 149.933 184.385 150.96 184.385Z" fill="#EBEBEB" fill-opacity="0.2"/>
        <path d="M162.428 184.385C163.455 184.385 164.289 183.554 164.289 182.53C164.289 181.506 163.455 180.676 162.428 180.676C161.4 180.676 160.567 181.506 160.567 182.53C160.567 183.554 161.4 184.385 162.428 184.385Z" fill="#EBEBEB" fill-opacity="0.2"/>
        <path d="M173.895 184.385C174.923 184.385 175.756 183.554 175.756 182.53C175.756 181.506 174.923 180.676 173.895 180.676C172.867 180.676 172.034 181.506 172.034 182.53C172.034 183.554 172.867 184.385 173.895 184.385Z" fill="#EBEBEB" fill-opacity="0.2"/>
        <path d="M185.362 184.385C186.39 184.385 187.223 183.554 187.223 182.53C187.223 181.506 186.39 180.676 185.362 180.676C184.334 180.676 183.501 181.506 183.501 182.53C183.501 183.554 184.334 184.385 185.362 184.385Z" fill="#EBEBEB" fill-opacity="0.2"/>
        <path d="M196.829 184.385C197.857 184.385 198.69 183.554 198.69 182.53C198.69 181.506 197.857 180.676 196.829 180.676C195.801 180.676 194.968 181.506 194.968 182.53C194.968 183.554 195.801 184.385 196.829 184.385Z" fill="#EBEBEB" fill-opacity="0.2"/>
        <path d="M208.296 184.385C209.324 184.385 210.157 183.554 210.157 182.53C210.157 181.506 209.324 180.676 208.296 180.676C207.268 180.676 206.435 181.506 206.435 182.53C206.435 183.554 207.268 184.385 208.296 184.385Z" fill="#EBEBEB" fill-opacity="0.2"/>
        <path d="M219.763 184.385C220.791 184.385 221.624 183.554 221.624 182.53C221.624 181.506 220.791 180.676 219.763 180.676C218.735 180.676 217.902 181.506 217.902 182.53C217.902 183.554 218.735 184.385 219.763 184.385Z" fill="#EBEBEB" fill-opacity="0.2"/>
        <path d="M1.88796 198.283C2.91568 198.283 3.74882 197.453 3.74882 196.428C3.74882 195.404 2.91568 194.574 1.88796 194.574C0.860235 194.574 0.0270996 195.404 0.0270996 196.428C0.0270996 197.453 0.860235 198.283 1.88796 198.283Z" fill="#EBEBEB" fill-opacity="0.2"/>
        <path d="M13.355 198.283C14.3827 198.283 15.2159 197.453 15.2159 196.428C15.2159 195.404 14.3827 194.574 13.355 194.574C12.3273 194.574 11.4941 195.404 11.4941 196.428C11.4941 197.453 12.3273 198.283 13.355 198.283Z" fill="#EBEBEB" fill-opacity="0.2"/>
        <path d="M24.8223 198.283C25.85 198.283 26.6831 197.453 26.6831 196.428C26.6831 195.404 25.85 194.574 24.8223 194.574C23.7946 194.574 22.9614 195.404 22.9614 196.428C22.9614 197.453 23.7946 198.283 24.8223 198.283Z" fill="#EBEBEB" fill-opacity="0.2"/>
        <path d="M36.2893 198.283C37.317 198.283 38.1502 197.453 38.1502 196.428C38.1502 195.404 37.317 194.574 36.2893 194.574C35.2616 194.574 34.4285 195.404 34.4285 196.428C34.4285 197.453 35.2616 198.283 36.2893 198.283Z" fill="#EBEBEB" fill-opacity="0.2"/>
        <path d="M47.7564 198.283C48.7841 198.283 49.6172 197.453 49.6172 196.428C49.6172 195.404 48.7841 194.574 47.7564 194.574C46.7286 194.574 45.8955 195.404 45.8955 196.428C45.8955 197.453 46.7286 198.283 47.7564 198.283Z" fill="#EBEBEB" fill-opacity="0.2"/>
        <path d="M59.2237 198.283C60.2514 198.283 61.0845 197.453 61.0845 196.428C61.0845 195.404 60.2514 194.574 59.2237 194.574C58.1959 194.574 57.3628 195.404 57.3628 196.428C57.3628 197.453 58.1959 198.283 59.2237 198.283Z" fill="#EBEBEB" fill-opacity="0.2"/>
        <path d="M70.6907 198.283C71.7184 198.283 72.5516 197.453 72.5516 196.428C72.5516 195.404 71.7184 194.574 70.6907 194.574C69.663 194.574 68.8298 195.404 68.8298 196.428C68.8298 197.453 69.663 198.283 70.6907 198.283Z" fill="#EBEBEB" fill-opacity="0.2"/>
        <path d="M82.1577 198.283C83.1855 198.283 84.0186 197.453 84.0186 196.428C84.0186 195.404 83.1855 194.574 82.1577 194.574C81.13 194.574 80.2969 195.404 80.2969 196.428C80.2969 197.453 81.13 198.283 82.1577 198.283Z" fill="#EBEBEB" fill-opacity="0.2"/>
        <path d="M93.625 198.283C94.6527 198.283 95.4859 197.453 95.4859 196.428C95.4859 195.404 94.6527 194.574 93.625 194.574C92.5973 194.574 91.7642 195.404 91.7642 196.428C91.7642 197.453 92.5973 198.283 93.625 198.283Z" fill="#EBEBEB" fill-opacity="0.2"/>
        <path d="M105.092 198.283C106.12 198.283 106.953 197.453 106.953 196.428C106.953 195.404 106.12 194.574 105.092 194.574C104.064 194.574 103.231 195.404 103.231 196.428C103.231 197.453 104.064 198.283 105.092 198.283Z" fill="#EBEBEB" fill-opacity="0.2"/>
        <path d="M116.559 198.283C117.587 198.283 118.42 197.453 118.42 196.428C118.42 195.404 117.587 194.574 116.559 194.574C115.531 194.574 114.698 195.404 114.698 196.428C114.698 197.453 115.531 198.283 116.559 198.283Z" fill="#EBEBEB" fill-opacity="0.2"/>
        <path d="M128.026 198.283C129.054 198.283 129.887 197.453 129.887 196.428C129.887 195.404 129.054 194.574 128.026 194.574C126.999 194.574 126.166 195.404 126.166 196.428C126.166 197.453 126.999 198.283 128.026 198.283Z" fill="#EBEBEB" fill-opacity="0.2"/>
        <path d="M139.493 198.283C140.521 198.283 141.354 197.453 141.354 196.428C141.354 195.404 140.521 194.574 139.493 194.574C138.466 194.574 137.633 195.404 137.633 196.428C137.633 197.453 138.466 198.283 139.493 198.283Z" fill="#EBEBEB" fill-opacity="0.2"/>
        <path d="M150.96 198.283C151.988 198.283 152.821 197.453 152.821 196.428C152.821 195.404 151.988 194.574 150.96 194.574C149.933 194.574 149.1 195.404 149.1 196.428C149.1 197.453 149.933 198.283 150.96 198.283Z" fill="#EBEBEB" fill-opacity="0.2"/>
        <path d="M162.428 198.283C163.455 198.283 164.289 197.453 164.289 196.428C164.289 195.404 163.455 194.574 162.428 194.574C161.4 194.574 160.567 195.404 160.567 196.428C160.567 197.453 161.4 198.283 162.428 198.283Z" fill="#EBEBEB" fill-opacity="0.2"/>
        <path d="M173.895 198.283C174.923 198.283 175.756 197.453 175.756 196.428C175.756 195.404 174.923 194.574 173.895 194.574C172.867 194.574 172.034 195.404 172.034 196.428C172.034 197.453 172.867 198.283 173.895 198.283Z" fill="#EBEBEB" fill-opacity="0.2"/>
        <path d="M185.362 198.283C186.39 198.283 187.223 197.453 187.223 196.428C187.223 195.404 186.39 194.574 185.362 194.574C184.334 194.574 183.501 195.404 183.501 196.428C183.501 197.453 184.334 198.283 185.362 198.283Z" fill="#EBEBEB" fill-opacity="0.2"/>
        <path d="M196.829 198.283C197.857 198.283 198.69 197.453 198.69 196.428C198.69 195.404 197.857 194.574 196.829 194.574C195.801 194.574 194.968 195.404 194.968 196.428C194.968 197.453 195.801 198.283 196.829 198.283Z" fill="#EBEBEB" fill-opacity="0.2"/>
        <path d="M208.296 198.283C209.324 198.283 210.157 197.453 210.157 196.428C210.157 195.404 209.324 194.574 208.296 194.574C207.268 194.574 206.435 195.404 206.435 196.428C206.435 197.453 207.268 198.283 208.296 198.283Z" fill="#EBEBEB" fill-opacity="0.2"/>
        <path d="M219.763 198.283C220.791 198.283 221.624 197.453 221.624 196.428C221.624 195.404 220.791 194.574 219.763 194.574C218.735 194.574 217.902 195.404 217.902 196.428C217.902 197.453 218.735 198.283 219.763 198.283Z" fill="#EBEBEB" fill-opacity="0.2"/>
        <path d="M1.88796 212.181C2.91568 212.181 3.74882 211.351 3.74882 210.327C3.74882 209.302 2.91568 208.472 1.88796 208.472C0.860235 208.472 0.0270996 209.302 0.0270996 210.327C0.0270996 211.351 0.860235 212.181 1.88796 212.181Z" fill="#EBEBEB" fill-opacity="0.2"/>
        <path d="M13.355 212.181C14.3827 212.181 15.2159 211.351 15.2159 210.327C15.2159 209.302 14.3827 208.472 13.355 208.472C12.3273 208.472 11.4941 209.302 11.4941 210.327C11.4941 211.351 12.3273 212.181 13.355 212.181Z" fill="#EBEBEB" fill-opacity="0.2"/>
        <path d="M24.8223 212.181C25.85 212.181 26.6831 211.351 26.6831 210.327C26.6831 209.302 25.85 208.472 24.8223 208.472C23.7946 208.472 22.9614 209.302 22.9614 210.327C22.9614 211.351 23.7946 212.181 24.8223 212.181Z" fill="#EBEBEB" fill-opacity="0.2"/>
        <path d="M36.2893 212.181C37.317 212.181 38.1502 211.351 38.1502 210.327C38.1502 209.302 37.317 208.472 36.2893 208.472C35.2616 208.472 34.4285 209.302 34.4285 210.327C34.4285 211.351 35.2616 212.181 36.2893 212.181Z" fill="#EBEBEB" fill-opacity="0.2"/>
        <path d="M47.7564 212.181C48.7841 212.181 49.6172 211.351 49.6172 210.327C49.6172 209.302 48.7841 208.472 47.7564 208.472C46.7286 208.472 45.8955 209.302 45.8955 210.327C45.8955 211.351 46.7286 212.181 47.7564 212.181Z" fill="#EBEBEB" fill-opacity="0.2"/>
        <path d="M59.2237 212.181C60.2514 212.181 61.0845 211.351 61.0845 210.327C61.0845 209.302 60.2514 208.472 59.2237 208.472C58.1959 208.472 57.3628 209.302 57.3628 210.327C57.3628 211.351 58.1959 212.181 59.2237 212.181Z" fill="#EBEBEB" fill-opacity="0.2"/>
        <path d="M70.6907 212.181C71.7184 212.181 72.5516 211.351 72.5516 210.327C72.5516 209.302 71.7184 208.472 70.6907 208.472C69.663 208.472 68.8298 209.302 68.8298 210.327C68.8298 211.351 69.663 212.181 70.6907 212.181Z" fill="#EBEBEB" fill-opacity="0.2"/>
        <path d="M82.1577 212.181C83.1855 212.181 84.0186 211.351 84.0186 210.327C84.0186 209.302 83.1855 208.472 82.1577 208.472C81.13 208.472 80.2969 209.302 80.2969 210.327C80.2969 211.351 81.13 212.181 82.1577 212.181Z" fill="#EBEBEB" fill-opacity="0.2"/>
        <path d="M93.625 212.181C94.6527 212.181 95.4859 211.351 95.4859 210.327C95.4859 209.302 94.6527 208.472 93.625 208.472C92.5973 208.472 91.7642 209.302 91.7642 210.327C91.7642 211.351 92.5973 212.181 93.625 212.181Z" fill="#EBEBEB" fill-opacity="0.2"/>
        <path d="M105.092 212.181C106.12 212.181 106.953 211.351 106.953 210.327C106.953 209.302 106.12 208.472 105.092 208.472C104.064 208.472 103.231 209.302 103.231 210.327C103.231 211.351 104.064 212.181 105.092 212.181Z" fill="#EBEBEB" fill-opacity="0.2"/>
        <path d="M116.559 212.181C117.587 212.181 118.42 211.351 118.42 210.327C118.42 209.302 117.587 208.472 116.559 208.472C115.531 208.472 114.698 209.302 114.698 210.327C114.698 211.351 115.531 212.181 116.559 212.181Z" fill="#EBEBEB" fill-opacity="0.2"/>
        <path d="M128.026 212.181C129.054 212.181 129.887 211.351 129.887 210.327C129.887 209.302 129.054 208.472 128.026 208.472C126.999 208.472 126.166 209.302 126.166 210.327C126.166 211.351 126.999 212.181 128.026 212.181Z" fill="#EBEBEB" fill-opacity="0.2"/>
        <path d="M139.493 212.181C140.521 212.181 141.354 211.351 141.354 210.327C141.354 209.302 140.521 208.472 139.493 208.472C138.466 208.472 137.633 209.302 137.633 210.327C137.633 211.351 138.466 212.181 139.493 212.181Z" fill="#EBEBEB" fill-opacity="0.2"/>
        <path d="M150.96 212.181C151.988 212.181 152.821 211.351 152.821 210.327C152.821 209.302 151.988 208.472 150.96 208.472C149.933 208.472 149.1 209.302 149.1 210.327C149.1 211.351 149.933 212.181 150.96 212.181Z" fill="#EBEBEB" fill-opacity="0.2"/>
        <path d="M162.428 212.181C163.455 212.181 164.289 211.351 164.289 210.327C164.289 209.302 163.455 208.472 162.428 208.472C161.4 208.472 160.567 209.302 160.567 210.327C160.567 211.351 161.4 212.181 162.428 212.181Z" fill="#EBEBEB" fill-opacity="0.2"/>
        <path d="M173.895 212.181C174.923 212.181 175.756 211.351 175.756 210.327C175.756 209.302 174.923 208.472 173.895 208.472C172.867 208.472 172.034 209.302 172.034 210.327C172.034 211.351 172.867 212.181 173.895 212.181Z" fill="#EBEBEB" fill-opacity="0.2"/>
        <path d="M185.362 212.181C186.39 212.181 187.223 211.351 187.223 210.327C187.223 209.302 186.39 208.472 185.362 208.472C184.334 208.472 183.501 209.302 183.501 210.327C183.501 211.351 184.334 212.181 185.362 212.181Z" fill="#EBEBEB" fill-opacity="0.2"/>
        <path d="M196.829 212.181C197.857 212.181 198.69 211.351 198.69 210.327C198.69 209.302 197.857 208.472 196.829 208.472C195.801 208.472 194.968 209.302 194.968 210.327C194.968 211.351 195.801 212.181 196.829 212.181Z" fill="#EBEBEB" fill-opacity="0.2"/>
        <path d="M208.296 212.181C209.324 212.181 210.157 211.351 210.157 210.327C210.157 209.302 209.324 208.472 208.296 208.472C207.268 208.472 206.435 209.302 206.435 210.327C206.435 211.351 207.268 212.181 208.296 212.181Z" fill="#EBEBEB" fill-opacity="0.2"/>
        <path d="M219.763 212.181C220.791 212.181 221.624 211.351 221.624 210.327C221.624 209.302 220.791 208.472 219.763 208.472C218.735 208.472 217.902 209.302 217.902 210.327C217.902 211.351 218.735 212.181 219.763 212.181Z" fill="#EBEBEB" fill-opacity="0.2"/>
        <path d="M1.88796 226.079C2.91568 226.079 3.74882 225.249 3.74882 224.225C3.74882 223.2 2.91568 222.37 1.88796 222.37C0.860235 222.37 0.0270996 223.2 0.0270996 224.225C0.0270996 225.249 0.860235 226.079 1.88796 226.079Z" fill="#EBEBEB" fill-opacity="0.2"/>
        <path d="M13.355 226.079C14.3827 226.079 15.2159 225.249 15.2159 224.225C15.2159 223.2 14.3827 222.37 13.355 222.37C12.3273 222.37 11.4941 223.2 11.4941 224.225C11.4941 225.249 12.3273 226.079 13.355 226.079Z" fill="#EBEBEB" fill-opacity="0.2"/>
        <path d="M24.8223 226.079C25.85 226.079 26.6831 225.249 26.6831 224.225C26.6831 223.2 25.85 222.37 24.8223 222.37C23.7946 222.37 22.9614 223.2 22.9614 224.225C22.9614 225.249 23.7946 226.079 24.8223 226.079Z" fill="#EBEBEB" fill-opacity="0.2"/>
        <path d="M36.2893 226.079C37.317 226.079 38.1502 225.249 38.1502 224.225C38.1502 223.2 37.317 222.37 36.2893 222.37C35.2616 222.37 34.4285 223.2 34.4285 224.225C34.4285 225.249 35.2616 226.079 36.2893 226.079Z" fill="#EBEBEB" fill-opacity="0.2"/>
        <path d="M47.7564 226.079C48.7841 226.079 49.6172 225.249 49.6172 224.225C49.6172 223.2 48.7841 222.37 47.7564 222.37C46.7286 222.37 45.8955 223.2 45.8955 224.225C45.8955 225.249 46.7286 226.079 47.7564 226.079Z" fill="#EBEBEB" fill-opacity="0.2"/>
        <path d="M59.2237 226.079C60.2514 226.079 61.0845 225.249 61.0845 224.225C61.0845 223.2 60.2514 222.37 59.2237 222.37C58.1959 222.37 57.3628 223.2 57.3628 224.225C57.3628 225.249 58.1959 226.079 59.2237 226.079Z" fill="#EBEBEB" fill-opacity="0.2"/>
        <path d="M70.6907 226.079C71.7184 226.079 72.5516 225.249 72.5516 224.225C72.5516 223.2 71.7184 222.37 70.6907 222.37C69.663 222.37 68.8298 223.2 68.8298 224.225C68.8298 225.249 69.663 226.079 70.6907 226.079Z" fill="#EBEBEB" fill-opacity="0.2"/>
        <path d="M82.1577 226.079C83.1855 226.079 84.0186 225.249 84.0186 224.225C84.0186 223.2 83.1855 222.37 82.1577 222.37C81.13 222.37 80.2969 223.2 80.2969 224.225C80.2969 225.249 81.13 226.079 82.1577 226.079Z" fill="#EBEBEB" fill-opacity="0.2"/>
        <path d="M93.625 226.079C94.6527 226.079 95.4859 225.249 95.4859 224.225C95.4859 223.2 94.6527 222.37 93.625 222.37C92.5973 222.37 91.7642 223.2 91.7642 224.225C91.7642 225.249 92.5973 226.079 93.625 226.079Z" fill="#EBEBEB" fill-opacity="0.2"/>
        <path d="M105.092 226.079C106.12 226.079 106.953 225.249 106.953 224.225C106.953 223.2 106.12 222.37 105.092 222.37C104.064 222.37 103.231 223.2 103.231 224.225C103.231 225.249 104.064 226.079 105.092 226.079Z" fill="#EBEBEB" fill-opacity="0.2"/>
        <path d="M116.559 226.079C117.587 226.079 118.42 225.249 118.42 224.225C118.42 223.2 117.587 222.37 116.559 222.37C115.531 222.37 114.698 223.2 114.698 224.225C114.698 225.249 115.531 226.079 116.559 226.079Z" fill="#EBEBEB" fill-opacity="0.2"/>
        <path d="M128.026 226.079C129.054 226.079 129.887 225.249 129.887 224.225C129.887 223.2 129.054 222.37 128.026 222.37C126.999 222.37 126.166 223.2 126.166 224.225C126.166 225.249 126.999 226.079 128.026 226.079Z" fill="#EBEBEB" fill-opacity="0.2"/>
        <path d="M139.493 226.079C140.521 226.079 141.354 225.249 141.354 224.225C141.354 223.2 140.521 222.37 139.493 222.37C138.466 222.37 137.633 223.2 137.633 224.225C137.633 225.249 138.466 226.079 139.493 226.079Z" fill="#EBEBEB" fill-opacity="0.2"/>
        <path d="M150.96 226.079C151.988 226.079 152.821 225.249 152.821 224.225C152.821 223.2 151.988 222.37 150.96 222.37C149.933 222.37 149.1 223.2 149.1 224.225C149.1 225.249 149.933 226.079 150.96 226.079Z" fill="#EBEBEB" fill-opacity="0.2"/>
        <path d="M162.428 226.079C163.455 226.079 164.289 225.249 164.289 224.225C164.289 223.2 163.455 222.37 162.428 222.37C161.4 222.37 160.567 223.2 160.567 224.225C160.567 225.249 161.4 226.079 162.428 226.079Z" fill="#EBEBEB" fill-opacity="0.2"/>
        <path d="M173.895 226.079C174.923 226.079 175.756 225.249 175.756 224.225C175.756 223.2 174.923 222.37 173.895 222.37C172.867 222.37 172.034 223.2 172.034 224.225C172.034 225.249 172.867 226.079 173.895 226.079Z" fill="#EBEBEB" fill-opacity="0.2"/>
        <path d="M185.362 226.079C186.39 226.079 187.223 225.249 187.223 224.225C187.223 223.2 186.39 222.37 185.362 222.37C184.334 222.37 183.501 223.2 183.501 224.225C183.501 225.249 184.334 226.079 185.362 226.079Z" fill="#EBEBEB" fill-opacity="0.2"/>
        <path d="M196.829 226.079C197.857 226.079 198.69 225.249 198.69 224.225C198.69 223.2 197.857 222.37 196.829 222.37C195.801 222.37 194.968 223.2 194.968 224.225C194.968 225.249 195.801 226.079 196.829 226.079Z" fill="#EBEBEB" fill-opacity="0.2"/>
        <path d="M208.296 226.079C209.324 226.079 210.157 225.249 210.157 224.225C210.157 223.2 209.324 222.37 208.296 222.37C207.268 222.37 206.435 223.2 206.435 224.225C206.435 225.249 207.268 226.079 208.296 226.079Z" fill="#EBEBEB" fill-opacity="0.2"/>
        <path d="M219.763 226.079C220.791 226.079 221.624 225.249 221.624 224.225C221.624 223.2 220.791 222.37 219.763 222.37C218.735 222.37 217.902 223.2 217.902 224.225C217.902 225.249 218.735 226.079 219.763 226.079Z" fill="#EBEBEB" fill-opacity="0.2"/>
    </g>
    <defs>
        <clipPath id="clip0">
            <rect width="222" height="232" fill="white" transform="translate(0 0.000488281)"/>
        </clipPath>
    </defs>
</svg>
