<svg width="19" height="19" viewBox="0 0 19 19" fill="none" xmlns="http://www.w3.org/2000/svg">
<g clip-path="url(#clip0)">
<path d="M17.6912 8.23241C18.0472 7.88545 18.1729 7.37623 18.0194 6.90287C17.8654 6.42951 17.4645 6.0916 16.972 6.01989L12.5925 5.38355C12.406 5.35639 12.2449 5.2394 12.1616 5.07027L10.2037 1.10229C9.98381 0.656457 9.53761 0.379395 9.04035 0.379395C8.54345 0.379395 8.09725 0.656457 7.87741 1.10229L5.91913 5.07063C5.83583 5.23977 5.67431 5.35675 5.48779 5.38391L1.10838 6.02025C0.616186 6.0916 0.214898 6.42987 0.0609738 6.90323C-0.0925879 7.37659 0.0330864 7.88581 0.389103 8.23277L3.55776 11.3214C3.69285 11.4532 3.75478 11.643 3.72291 11.8284L2.97539 16.1897C2.90911 16.5736 3.00979 16.947 3.25824 17.2415C3.64432 17.7004 4.31833 17.8402 4.85724 17.5569L8.77379 15.4976C8.93749 15.4118 9.14357 15.4125 9.30691 15.4976L13.2238 17.5569C13.4143 17.6573 13.6175 17.708 13.8272 17.708C14.21 17.708 14.5729 17.5377 14.8225 17.2415C15.0713 16.947 15.1716 16.5729 15.1053 16.1897L14.3574 11.8284C14.3256 11.6426 14.3875 11.4532 14.5226 11.3214L17.6912 8.23241Z" fill="url(#paint0_linear)"/>
</g>
<defs>
<linearGradient id="paint0_linear" x1="1.08181" y1="3.59755" x2="17.2586" y2="4.88387" gradientUnits="userSpaceOnUse">
<stop stop-color="#B88C62"/>
<stop offset="1" stop-color="#A07246"/>
</linearGradient>
<clipPath id="clip0">
<rect width="18.087" height="18.087" fill="white"/>
</clipPath>
</defs>
</svg>
