<svg width="24" height="24" viewBox="0 0 24 24" fill="none" xmlns="http://www.w3.org/2000/svg">
<path d="M0.423911 11.5714L5.95399 13.6354L8.09447 20.5191C8.23143 20.96 8.77055 21.123 9.12839 20.8304L12.211 18.3175C12.5341 18.0542 12.9943 18.0411 13.332 18.2862L18.8918 22.3228C19.2746 22.601 19.817 22.3912 19.913 21.9287L23.9858 2.33738C24.0906 1.8321 23.5942 1.41058 23.113 1.59666L0.417431 10.3519C-0.142649 10.5679 -0.137769 11.3609 0.423911 11.5714ZM7.74951 12.5367L18.5574 5.8801C18.7516 5.76082 18.9514 6.02346 18.7846 6.17818L9.86503 14.4694C9.55151 14.7612 9.34927 15.1518 9.29199 15.5757L8.98815 17.8274C8.94791 18.128 8.52559 18.1579 8.44263 17.8669L7.27407 13.7609C7.14023 13.2926 7.33527 12.7923 7.74951 12.5367Z" fill="#00AFEF"/>
</svg>
