<svg width="24" height="24" viewBox="0 0 24 24" fill="none" xmlns="http://www.w3.org/2000/svg">
<g clip-path="url(#clip0)">
<path d="M20.4338 3.4852C18.1793 1.23904 15.18 0.00125122 11.9879 -3.05176e-05C8.80298 -3.05176e-05 5.79895 1.23666 3.52954 3.48227C1.2561 5.73172 0.00292969 8.7211 0 11.8888V11.8925V11.8947C0.000366211 13.812 0.504089 15.7461 1.46027 17.5116L0.0327759 24L6.59583 22.5071C8.25806 23.3448 10.1127 23.7865 11.9833 23.7872H11.9881C15.1725 23.7872 18.1765 22.5503 20.4463 20.3045C22.7217 18.0533 23.9755 15.0677 23.9769 11.898C23.9778 8.75058 22.7197 5.76285 20.4338 3.4852ZM11.9879 21.914H11.9837C10.3041 21.9133 8.63983 21.4916 7.17114 20.6942L6.86078 20.5257L2.49664 21.5183L3.44458 17.2102L3.26184 16.8951C2.35327 15.3283 1.87317 13.5987 1.87317 11.8927C1.87665 6.37076 6.41364 1.87314 11.9875 1.87314C14.6803 1.87424 17.2104 2.91812 19.1118 4.81216C21.0419 6.7355 22.1045 9.25174 22.1036 11.8974C22.1014 17.4206 17.5635 21.914 11.9879 21.914Z" fill="white"/>
<path d="M8.72577 6.64981H8.20026C8.01733 6.64981 7.72034 6.71829 7.46912 6.99167C7.21771 7.26523 6.50928 7.92642 6.50928 9.27115C6.50928 10.6159 7.492 11.9152 7.62897 12.0977C7.76611 12.2801 9.52594 15.1278 12.3132 16.2233C14.6296 17.1337 15.1011 16.9526 15.6038 16.907C16.1066 16.8616 17.2263 16.246 17.4548 15.6079C17.6833 14.9698 17.6833 14.4226 17.6148 14.3084C17.5461 14.1945 17.3632 14.1262 17.0891 13.9896C16.8148 13.8528 15.4708 13.1804 15.2194 13.0891C14.968 12.9981 14.7853 12.9525 14.6024 13.2262C14.4194 13.4994 13.8809 14.1315 13.7209 14.3139C13.561 14.4964 13.401 14.5193 13.1267 14.3825C12.8524 14.2454 11.9783 13.9517 10.9307 13.0208C10.1154 12.2962 9.54956 11.3723 9.38953 11.0987C9.22968 10.8253 9.3725 10.6774 9.51001 10.541C9.63324 10.4187 9.79968 10.2513 9.93683 10.0918C10.0738 9.93216 10.1128 9.81827 10.2043 9.63589C10.2957 9.45352 10.2499 9.29385 10.1815 9.15726C10.1128 9.02048 9.58655 7.66898 9.34265 7.12845H9.34283C9.13739 6.67325 8.92114 6.65787 8.72577 6.64981Z" fill="white"/>
</g>
<defs>
<clipPath id="clip0">
<rect width="24" height="24" fill="white"/>
</clipPath>
</defs>
</svg>
